<?xml version="1.0" encoding="utf-8"?>
<svg width="124px" height="124px" viewBox="0 0 124 124" version="1.1" xmlns:xlink="http://www.w3.org/1999/xlink" xmlns="http://www.w3.org/2000/svg">
  <defs>
    <path d="M51.499 29.2424C53.2946 11.0606 60.9257 6.06061 60.9257 6.06061C60.9257 6.06061 69.0057 6.06061 71.699 40.1515C74.3924 74.2424 71.1895 82.2215 69.0057 97.4242C66.8219 112.627 60.9257 115.152 60.9257 115.152C60.9257 115.152 54.4414 114.694 51.499 87.8788C48.5566 61.0639 49.7034 47.4242 51.499 29.2424Z" id="path_1" />
    <path d="M29.1939 53.3361C14.3457 42.6901 13.8311 33.5814 13.8311 33.5814C13.8311 33.5814 17.8712 26.5839 48.7414 41.2969C79.6117 56.0098 84.9203 62.7732 96.9944 72.2657C109.068 81.7583 108.307 88.1269 108.307 88.1269C108.307 88.1269 104.668 93.5135 79.9744 82.6542C55.2809 71.7949 44.042 63.982 29.1939 53.3361Z" id="path_2" />
    <path d="M83.5173 36.5124C100.161 28.9765 108.307 33.0853 108.307 33.0853C108.307 33.0853 112.347 40.0828 84.1697 59.4607C55.9928 78.8387 47.4812 80.0544 33.2234 85.7646C18.9656 91.4747 13.8311 87.6307 13.8311 87.6307C13.8311 87.6307 10.9855 81.7862 32.7367 65.8306C54.4879 49.875 66.8736 44.0483 83.5173 36.5124Z" id="path_3" />
    <clipPath id="clip_1">
      <use xlink:href="#path_1" />
    </clipPath>
    <clipPath id="clip_2">
      <use xlink:href="#path_2" />
    </clipPath>
    <clipPath id="clip_3">
      <use xlink:href="#path_3" />
    </clipPath>
  </defs>
  <g id="Group-9-Copy" transform="translate(1.9238281 1.9238281)">
    <path d="M60 120C93.1371 120 120 93.1371 120 60C120 26.8629 93.1371 0 60 0C26.8629 0 0 26.8629 0 60C0 93.1371 26.8629 120 60 120Z" id="Oval-5" fill="#2E3049" fill-rule="evenodd" stroke="none" />
    <path d="M60 95.7576C79.7484 95.7576 95.7576 79.7484 95.7576 60C95.7576 40.2516 79.7484 24.2424 60 24.2424C40.2516 24.2424 24.2424 40.2516 24.2424 60C24.2424 79.7484 40.2516 95.7576 60 95.7576Z" id="Oval-6" fill="#1B1D37" fill-rule="evenodd" stroke="none" />
    <g id="Rectangle">
      <g clip-path="url(#clip_1)">
        <use xlink:href="#path_1" fill="none" stroke="#6F7291" stroke-width="7.6960077" />
      </g>
    </g>
    <g id="Rectangle-Copy">
      <g clip-path="url(#clip_2)">
        <use xlink:href="#path_2" fill="none" stroke="#6F7291" stroke-width="7.6960077" />
      </g>
    </g>
    <g id="Rectangle-Copy-2">
      <g clip-path="url(#clip_3)">
        <use xlink:href="#path_3" fill="none" stroke="#6F7291" stroke-width="7.6960077" />
      </g>
    </g>
    <path d="M61.2121 67.8788C64.894 67.8788 67.8788 64.894 67.8788 61.2121C67.8788 57.5302 64.894 54.5455 61.2121 54.5455C57.5302 54.5455 54.5455 57.5302 54.5455 61.2121C54.5455 64.894 57.5302 67.8788 61.2121 67.8788Z" id="Oval-7" fill="#B7B9C9" fill-rule="evenodd" stroke="none" />
    <path d="M26.0606 52.1212C28.4036 52.1212 30.303 50.2218 30.303 47.8788C30.303 45.5358 28.4036 43.6364 26.0606 43.6364C23.7176 43.6364 21.8182 45.5358 21.8182 47.8788C21.8182 50.2218 23.7176 52.1212 26.0606 52.1212Z" id="Oval-7-Copy" fill="#B7B9C9" fill-rule="evenodd" stroke="none" />
    <path d="M53.9394 99.3939C56.2824 99.3939 58.1818 97.4945 58.1818 95.1515C58.1818 92.8085 56.2824 90.9091 53.9394 90.9091C51.5964 90.9091 49.697 92.8085 49.697 95.1515C49.697 97.4945 51.5964 99.3939 53.9394 99.3939Z" id="Oval-7-Copy-2" fill="#B7B9C9" fill-rule="evenodd" stroke="none" />
    <path d="M86.6667 38.7879C89.0097 38.7879 90.9091 36.8885 90.9091 34.5455C90.9091 32.2024 89.0097 30.303 86.6667 30.303C84.3236 30.303 82.4242 32.2024 82.4242 34.5455C82.4242 36.8885 84.3236 38.7879 86.6667 38.7879Z" id="Oval-7-Copy-3" fill="#B7B9C9" fill-rule="evenodd" stroke="none" />
  </g>
</svg>