<?xml version="1.0" encoding="utf-8"?>
<svg width="27px" height="27px" viewBox="0 0 27 27" version="1.1" xmlns:xlink="http://www.w3.org/1999/xlink" xmlns="http://www.w3.org/2000/svg">
  <defs>
    <path d="M0 0L26 0L26 26L0 26L0 0Z" id="path_1" />
    <clipPath id="mask_1">
      <use xlink:href="#path_1" />
    </clipPath>
  </defs>
  <g id="rATOM" transform="translate(0.25 0.25)">
    <path d="M0 0L26 0L26 26L0 26L0 0Z" id="Background" fill="none" fill-rule="evenodd" stroke="none" />
    <g clip-path="url(#mask_1)">
      <g id="StaFiHub">
        <g id="StaFi-rDOT-Copy-11">
          <g id="Group-9-Copy-6">
            <path d="M0 13C0 5.8203 5.77669 0 12.9026 0C20.0285 0 25.8052 5.8203 25.8052 13C25.8052 20.1797 20.0285 26 12.9026 26C5.77669 26 0 20.1797 0 13Z" id="Oval-5" fill="#FFFFFF" fill-rule="evenodd" stroke="none" />
            <path d="M5.16113 13C5.16113 8.69213 8.62715 5.19995 12.9027 5.19995C17.1782 5.19995 20.6443 8.69213 20.6443 13C20.6443 17.3078 17.1782 20.8 12.9027 20.8C8.62715 20.8 5.16113 17.3078 5.16113 13Z" id="Oval-6" fill="none" fill-rule="evenodd" stroke="#23292F" stroke-width="0.5" />
            <path d="M12.9067 1.12048C13.1146 1.14354 13.3013 1.27185 13.4755 1.4829C13.7119 1.76935 13.9209 2.20094 14.1099 2.77323C14.508 3.97909 14.8044 5.78829 15.0035 8.19979C15.4223 13.2744 15.2017 15.6353 14.8646 17.7013L14.804 18.0633C14.763 18.3033 14.7207 18.5411 14.6782 18.7808C14.5846 19.3072 14.4896 19.8424 14.4018 20.4271C14.105 22.4051 13.6012 23.6363 12.8003 24.0105C12.6392 23.9813 12.4933 23.8727 12.3538 23.7046C12.159 23.4699 11.9826 23.1239 11.8188 22.6702C11.4713 21.7079 11.1911 20.2803 10.9742 18.3882C10.3177 12.6612 10.5739 9.74809 10.9745 5.86488C11.2258 3.42962 11.8493 1.83042 12.9067 1.12048L12.9067 1.12048Z" id="Rectangle" fill="none" fill-rule="evenodd" stroke="#23292F" stroke-width="0.5" />
            <path d="M2.99194 6.83992C3.11589 6.67135 3.32032 6.57389 3.59019 6.52855C3.95648 6.46702 4.43478 6.50178 5.02486 6.62429C6.26823 6.88243 7.98326 7.53032 10.1712 8.56369C14.7754 10.7383 16.7097 12.1098 18.3303 13.4347L18.6136 13.6682C18.8008 13.8237 18.9857 13.9792 19.172 14.136C19.5811 14.4801 19.997 14.83 20.4596 15.1984C22.0241 16.4444 22.8385 17.4964 22.7621 18.377C22.6562 18.5019 22.4892 18.574 22.2739 18.6108C21.9733 18.6622 21.5854 18.6419 21.1106 18.5569C20.1035 18.3767 18.727 17.9055 16.98 17.1474C11.692 14.8524 9.29727 13.174 6.13464 10.8854C4.15127 9.45018 3.07807 8.11061 2.99194 6.83992L2.99194 6.83992Z" id="Rectangle-Copy" fill="none" fill-rule="evenodd" stroke="#23292F" stroke-width="0.5" />
            <path d="M22.8175 6.84714C22.9015 7.03877 22.8837 7.26454 22.788 7.52092C22.6582 7.8689 22.3889 8.26574 21.9878 8.71552C21.1426 9.66323 19.724 10.8246 17.7351 12.2027C13.5497 15.1027 11.3948 16.0921 9.43707 16.8332L9.09325 16.9617C8.86491 17.0461 8.6378 17.1285 8.40895 17.2114C7.9063 17.3937 7.39534 17.5789 6.84505 17.7953C4.98369 18.5272 3.66547 18.7066 2.94101 18.2C2.88578 18.0459 2.90683 17.8652 2.98264 17.6604C3.08848 17.3743 3.29999 17.0486 3.61096 16.6799C4.27057 15.8978 5.36688 14.9413 6.89696 13.8075C11.5285 10.3754 14.1794 9.14068 17.7427 7.54605C19.9773 6.54601 21.674 6.28639 22.8175 6.84714L22.8175 6.84714Z" id="Rectangle-Copy-2" fill="none" fill-rule="evenodd" stroke="#23292F" stroke-width="0.5" />
            <path d="M12.0425 13.4333C12.0425 12.7153 12.6201 12.1333 13.3327 12.1333C14.0453 12.1333 14.623 12.7153 14.623 13.4333C14.623 14.1513 14.0453 14.7333 13.3327 14.7333C12.6201 14.7333 12.0425 14.1513 12.0425 13.4333Z" id="Oval-7" fill="#23292F" fill-rule="evenodd" stroke="none" />
            <path d="M4.16113 10.4C4.16113 9.84774 4.60885 9.40002 5.16113 9.40002C5.71342 9.40002 6.16113 9.84774 6.16113 10.4C6.16113 10.9523 5.71342 11.4 5.16113 11.4C4.60885 11.4 4.16113 10.9523 4.16113 10.4Z" id="Oval-7-Copy" fill="#23292F" fill-rule="evenodd" stroke="none" />
            <path d="M10.1824 19.9333C10.1824 19.3811 10.6301 18.9333 11.1824 18.9333C11.7347 18.9333 12.1824 19.3811 12.1824 19.9333C12.1824 20.4856 11.7347 20.9333 11.1824 20.9333C10.6301 20.9333 10.1824 20.4856 10.1824 19.9333Z" id="Oval-7-Copy-2" fill="#23292F" fill-rule="evenodd" stroke="none" />
            <path d="M17.0637 6.93335C17.0637 6.38106 17.5114 5.93335 18.0637 5.93335C18.616 5.93335 19.0637 6.38106 19.0637 6.93335C19.0637 7.48563 18.616 7.93335 18.0637 7.93335C17.5114 7.93335 17.0637 7.48563 17.0637 6.93335Z" id="Oval-7-Copy-3" fill="#23292F" fill-rule="evenodd" stroke="none" />
          </g>
        </g>
      </g>
    </g>
  </g>
</svg>