<?xml version="1.0" encoding="utf-8"?>
<svg width="29px" height="29px" viewBox="0 0 29 29" version="1.1" xmlns:xlink="http://www.w3.org/1999/xlink" xmlns="http://www.w3.org/2000/svg">
  <defs>
    <path d="M0 0L28 0L28 28L0 28L0 0Z" id="path_1" />
    <clipPath id="mask_1">
      <use xlink:href="#path_1" />
    </clipPath>
  </defs>
  <g id="rFIS-2" transform="translate(0.25 0.25)">
    <path d="M0 0L28 0L28 28L0 28L0 0Z" id="Background" fill="none" fill-rule="evenodd" stroke="none" />
    <g clip-path="url(#mask_1)">
      <g id="StaFiHub" transform="translate(1 0.9999695)">
        <g id="StaFi-rDOT-Copy-11">
          <g id="Group-2-Copy-54">
            <path d="M0 13C0 5.8203 5.77669 0 12.9026 0C20.0285 0 25.8052 5.8203 25.8052 13C25.8052 20.1797 20.0285 26 12.9026 26C5.77669 26 0 20.1797 0 13Z" id="Oval-5-Copy-2" fill="#FFFFFF" fill-rule="evenodd" stroke="#EEEEEE" stroke-width="0.5" />
            <path d="M13.8014 15.2932C14.3116 15.3256 14.7999 15.392 15.2664 15.4926L15.609 16.575L15.6288 15.5803L15.8073 15.6273C16.2588 15.8035 16.7104 15.9145 17.162 15.9603L16.6959 18.2343L14.7189 18.2343L13.8014 15.2932ZM12.1302 15.307L11.2613 18.2343L9.35277 18.2343L8.90681 15.9801C9.42115 15.9568 9.89065 15.8392 10.3153 15.6273C10.3858 15.6073 10.4568 15.5882 10.5283 15.5699L10.5852 16.575L10.8802 15.4875C11.2808 15.4022 11.6975 15.3421 12.1302 15.307L12.1302 15.307ZM8.63557 5.73529L10.4308 14.1303L10.3153 14.1989C9.87446 14.403 9.4192 14.5196 8.94951 14.5487L8.71347 14.556C8.6846 14.556 8.65557 14.5557 8.62638 14.555L6.88281 5.73529L8.63557 5.73529L8.63557 5.73529ZM17.2241 5.73529L19.2398 5.83294L17.4521 14.5513C16.9637 14.5273 16.4154 14.4098 15.8073 14.1989C15.7925 14.1897 15.7778 14.1806 15.7629 14.1716L17.2241 5.73529L17.2241 5.73529ZM13.5293 9.97613L14.7028 13.706C14.2029 13.5584 13.6557 13.4847 13.0613 13.4847L13.2478 13.4883L12.9473 12.3792L12.6534 13.4967C12.1995 13.5239 11.7753 13.5976 11.3809 13.7176L12.4766 9.97613L13.5293 9.97613L13.5293 9.97613Z" id="Combined-Shape-Copy" fill="#23292F" fill-rule="evenodd" stroke="none" />
          </g>
        </g>
      </g>
    </g>
  </g>
</svg>