<?xml version="1.0" encoding="utf-8"?>
<svg width="21px" height="21px" viewBox="0 0 21 21" version="1.1" xmlns:xlink="http://www.w3.org/1999/xlink" xmlns="http://www.w3.org/2000/svg">
  <g id="Group-2-Copy-54" transform="translate(0.25 0.25)">
    <path d="M9.92508 20C15.4066 20 19.8502 15.5228 19.8502 10C19.8502 4.47715 15.4066 0 9.92508 0C4.44361 0 0 4.47715 0 10C0 15.5228 4.44361 20 9.92508 20Z" id="Oval-5-Copy-2" fill="#FFFFFF" fill-rule="evenodd" stroke="#EEEEEE" stroke-width="0.5" />
    <path d="M13.4238 11.1924L14.7993 4.48686L13.2488 4.41174L12.1242 10.9017C12.1471 10.9148 12.1589 10.9222 12.1589 10.9222C12.1589 10.9222 12.835 11.1567 13.4238 11.1924ZM13.202 12.2735C12.6386 12.2082 12.1589 12.021 12.1589 12.021C12.1589 12.021 12.1102 12.0072 12.0216 11.9857L12.0064 12.75L11.7435 11.924C11.4659 11.8676 11.0692 11.8011 10.6155 11.7678L11.3217 14.0263L12.8424 14.0263L13.202 12.2735ZM10.1901 10.3753L9.95893 9.52244L9.73305 10.3846C9.35822 10.4126 9.02446 10.4875 8.74928 10.5728L9.59684 7.67392L10.4066 7.67392L11.3143 10.5637C11.0034 10.4697 10.6206 10.3901 10.1901 10.3753ZM8.36856 11.9202C8.61386 11.8709 8.94768 11.8148 9.32958 11.78L8.662 14.0263L7.19391 14.0263L6.85107 12.2914C7.46207 12.2566 7.93432 12.021 7.93432 12.021C7.93432 12.021 7.99331 12.0043 8.09938 11.9791L8.14192 12.75L8.36856 11.9202ZM8.02414 10.8712L6.64222 4.41174L5.29395 4.41174L6.63458 11.1959C6.65724 11.1966 6.67977 11.1969 6.70214 11.1969C7.34088 11.1969 7.93432 10.9222 7.93432 10.9222C7.93432 10.9222 7.96543 10.9028 8.02414 10.8712Z" id="Combined-Shape-Copy" fill="#23292F" fill-rule="evenodd" stroke="none" />
  </g>
</svg>