<?xml version="1.0" encoding="UTF-8"?>
<svg width="26px" height="26px" viewBox="0 0 26 26" version="1.1" xmlns="http://www.w3.org/2000/svg" xmlns:xlink="http://www.w3.org/1999/xlink">
    <title>Group 11</title>
    <g id="StaFiHub" stroke="none" stroke-width="1" fill="none" fill-rule="evenodd">
        <g id="StaFi-rDOT-Copy-11" transform="translate(-436.000000, -269.000000)">
            <g id="Group-11" transform="translate(436.000000, 269.000000)">
                <g id="Group-2-Copy-56">
                    <ellipse id="Oval-5-Copy-2" fill="#FFFFFF" cx="12.9026068" cy="13" rx="12.9026068" ry="13"></ellipse>
                    <path d="M4.33333333,9.30566406 L4.33333333,5.23046875 C4.35872409,3.91014965 5.01887373,3.25 6.31380208,3.25 L8.21809896,3.25 L8.21809896,4.12597656 L6.7327474,4.12597656 C6.04719709,4.12597656 5.6917319,4.46874657 5.66634115,5.15429688 L5.66634115,9.30566406 L4.33333333,9.30566406 Z" id="r" fill="#00F3AB"></path>
                </g>
                <g id="binance-coin-bnb-logo-copy" transform="translate(4.333333, 4.333333)" fill="#23292F" fill-rule="nonzero">
                    <path d="M5.30039467,7.28360533 L8.66666667,3.91733333 L12.0345333,7.28506133 L13.9932,5.32639467 L8.66666667,0 L3.34186667,5.3248 L5.300464,7.28346667 L5.30039467,7.28360533 Z M0,8.66666667 L1.958736,6.70765333 L3.91733333,8.66625067 L1.95859733,10.6249867 L0,8.66666667 Z M5.30039467,10.049936 L8.66666667,13.416 L12.034464,10.0483413 L13.9941707,12.005968 L13.9932,12.007008 L8.66666667,17.3333333 L3.34186667,12.0085333 L3.33909333,12.00576 L5.30060267,10.049728 L5.30039467,10.049936 Z M13.416,8.66749867 L15.374736,6.70876267 L17.3333333,8.66736 L15.3746667,10.626096 L13.416,8.66749867 Z" id="Shape"></path>
                    <polyline id="Shape" points="10.6532053 8.66562667 10.6540373 8.66562667 8.66666667 6.67811733 7.19770133 8.14666667 7.19770133 8.14666667 7.028944 8.31549333 6.68089067 8.663616 6.67811733 8.66632 6.68089067 8.66916267 8.66666667 10.655216 10.654176 8.66770667 10.6551467 8.66659733 10.653344 8.66562667"></polyline>
                </g>
            </g>
        </g>
    </g>
</svg>