<?xml version="1.0" encoding="UTF-8"?>
<svg width="28px" height="28px" viewBox="0 0 28 28" version="1.1" xmlns="http://www.w3.org/2000/svg" xmlns:xlink="http://www.w3.org/1999/xlink">
    <title>Group 2 Copy 20</title>
    <g id="StaFiHub" stroke="none" stroke-width="1" fill="none" fill-rule="evenodd">
        <g id="StaFi-rDOT-Copy-11" transform="translate(-436.000000, -325.000000)">
            <g id="Group-2-Copy-20" transform="translate(437.000000, 326.000000)">
                <circle id="Oval-5-Copy-2" stroke="#EEEEEE" stroke-width="0.54939759" fill="#FFFFFF" cx="13" cy="13" r="13"></circle>
                <path d="M4.33333333,9.30566406 L4.33333333,5.23046875 C4.35872409,3.91014965 5.01887373,3.25 6.31380208,3.25 L8.21809896,3.25 L8.21809896,4.12597656 L6.7327474,4.12597656 C6.04719709,4.12597656 5.6917319,4.46874657 5.66634115,5.15429688 L5.66634115,9.30566406 L4.33333333,9.30566406 Z" id="r" fill="#00F3AB"></path>
                <g id="Polkadot_symbol_color-Copy-6" transform="translate(8.233333, 5.633333)" fill-rule="nonzero">
                    <path d="M4.98333333,0.0931023102 C2.25561404,0.0931023102 0.0262280702,2.34085809 0.0262280702,5.12062706 C0.0262280702,5.67924092 0.118026316,6.22455446 0.288508772,6.75656766 C0.406535088,7.11567657 0.79995614,7.31518152 1.16714912,7.19547855 C1.52122807,7.07577558 1.7179386,6.67676568 1.59991228,6.30435644 C1.45565789,5.8920462 1.39008772,5.45313531 1.40320175,5.01422442 C1.45565789,3.13887789 2.95065789,1.5960396 4.79973684,1.50293729 C6.85864035,1.39653465 8.56346491,3.05907591 8.56346491,5.12062706 C8.56346491,7.04917492 7.06846491,8.63191419 5.19315789,8.73831683 C5.19315789,8.73831683 4.49811404,8.77821782 4.15714912,8.83141914 C3.98666667,8.8580198 3.85552632,8.88462046 3.76372807,8.89792079 C3.72438596,8.91122112 3.68504386,8.87132013 3.69815789,8.83141914 L3.81618421,8.24620462 L4.45877193,5.24033003 C4.53745614,4.86792079 4.30140351,4.49551155 3.93421053,4.41570957 C3.56701754,4.33590759 3.19982456,4.57531353 3.12114035,4.94772277 C3.12114035,4.94772277 1.57368421,12.2629043 1.56057018,12.3427063 C1.48188596,12.7151155 1.7179386,13.0875248 2.08513158,13.1673267 C2.45232456,13.2471287 2.81951754,13.0077228 2.89820175,12.6353135 C2.91131579,12.5555116 3.12114035,11.5845875 3.12114035,11.5845875 C3.27850877,10.839769 3.88175439,10.2944554 4.58991228,10.2013531 C4.7472807,10.1747525 5.36364035,10.1348515 5.36364035,10.1348515 C7.92087719,9.93534653 9.9404386,7.76739274 9.9404386,5.12062706 C9.9404386,2.34085809 7.71105263,0.0931023102 4.98333333,0.0931023102 Z" id="Shape" fill="#23292F"></path>
                    <path d="M5.33741228,11.6643894 C4.89153509,11.5712871 4.44565789,11.8505941 4.35385965,12.3161056 C4.2620614,12.7683168 4.53745614,13.2205281 4.99644737,13.3136304 C5.44232456,13.4067327 5.88820175,13.1274257 5.98,12.6619142 C6.07179825,12.1964026 5.79640351,11.7574917 5.33741228,11.6643894 Z" id="Shape" fill="#E6007A"></path>
                </g>
            </g>
        </g>
    </g>
</svg>