<?xml version="1.0" encoding="UTF-8"?>
<svg width="26px" height="26px" viewBox="0 0 26 26" version="1.1" xmlns="http://www.w3.org/2000/svg" xmlns:xlink="http://www.w3.org/1999/xlink">
    <title>Group 5 Copy 31</title>
    <g id="StaFiHub" stroke="none" stroke-width="1" fill="none" fill-rule="evenodd">
        <g id="StaFi-rDOT-Copy-11" transform="translate(-436.000000, -440.000000)">
            <g id="Group-5-Copy-31" transform="translate(436.000000, 440.000000)">
                <ellipse id="Oval-5-Copy" fill="#FFFFFF" cx="12.9026068" cy="13" rx="12.9026068" ry="13"></ellipse>
                <path d="M4.33333333,9.25561725 L4.33333333,5.21410124 C4.35872409,3.90469387 5.01887373,3.25 6.31380208,3.25 L8.21809896,3.25 L8.21809896,4.11873709 L6.7327474,4.11873709 C6.04719709,4.11873709 5.6917319,4.45867429 5.66634115,5.13855888 L5.66634115,9.25561725 L4.33333333,9.25561725 Z" id="r" fill="#00F3AB"></path>
                <g id="Group-130" transform="translate(5.200000, 6.933333)" fill="#23292F">
                    <path d="M2.64037183,0 L15.2498345,0 C15.4018976,1.94111066e-16 15.5251691,0.123271503 15.5251691,0.275334608 C15.5251691,0.34828102 15.4962216,0.418246212 15.4446823,0.469868655 L12.8853449,3.03333333 L12.8853449,3.03333333 L0.32709107,3.03333333 C0.175027965,3.03333333 0.0517564621,2.91006183 0.0517564621,2.75799873 C0.0517564621,2.68601548 0.0799466219,2.61689467 0.130288297,2.56544272 L2.64037183,0 L2.64037183,0 Z" id="Rectangle-88"></path>
                    <path d="M2.64037183,9.1 L15.2498345,9.1 C15.4018976,9.1 15.5251691,9.2232715 15.5251691,9.37533461 C15.5251691,9.44828102 15.4962216,9.51824621 15.4446823,9.56986866 L12.8853449,12.1333333 L12.8853449,12.1333333 L0.32709107,12.1333333 C0.175027965,12.1333333 0.0517564621,12.0100618 0.0517564621,11.8579987 C0.0517564621,11.7860155 0.0799466219,11.7168947 0.130288297,11.6654427 L2.64037183,9.1 L2.64037183,9.1 Z" id="Rectangle-88-Copy"></path>
                    <path d="M2.64040121,4.57973856 L15.2498639,4.57973856 C15.401927,4.57973856 15.5251985,4.70301007 15.5251985,4.85507317 C15.5251985,4.92801958 15.496251,4.99798477 15.4447116,5.04960722 L12.8853743,7.6130719 L12.8853743,7.6130719 L0.32712045,7.6130719 C0.175057345,7.6130719 0.0517858423,7.48980039 0.0517858423,7.33773729 C0.0517858423,7.26575405 0.0799760021,7.19663323 0.130317677,7.14518128 L2.64040121,4.57973856 L2.64040121,4.57973856 Z" id="Rectangle-88-Copy-2" transform="translate(7.789116, 6.096405) scale(-1, 1) translate(-7.789116, -6.096405) "></path>
                </g>
            </g>
        </g>
    </g>
</svg>