<?xml version="1.0" encoding="utf-8"?>
<svg width="29px" height="23px" viewBox="0 0 29 23" version="1.1" xmlns:xlink="http://www.w3.org/1999/xlink" xmlns="http://www.w3.org/2000/svg">
  <defs>
    <filter filterUnits="userSpaceOnUse" color-interpolation-filters="sRGB" id="filter_1">
      <feFlood flood-opacity="0" result="BackgroundImageFix" />
      <feBlend mode="normal" in="SourceGraphic" in2="BackgroundImageFix" result="shape" />
      <feGaussianBlur stdDeviation="2.9773157" result="effect0_gaussianBlur" />
    </filter>
  </defs>
  <g id="Group-14" transform="translate(0.42822266 0.427989)">
    <g id="Group-12">
      <g id="Group-6">
        <g id="Group-10" transform="translate(0 0.07270643)">
          <path d="M14.753 14.0972C21.7479 13.2384 27.0812 9.79635 26.6653 6.40929C26.2494 3.02223 20.2418 0.972722 13.247 1.83158C6.25213 2.69044 0.918819 6.13244 1.3347 9.5195C1.75058 12.9066 7.75816 14.9561 14.753 14.0972Z" id="Oval-20" fill="#FFFFFF" fill-rule="evenodd" stroke="#979797" stroke-width="0.6847826" />
          <path d="M14.6222 13.1315C21.1917 12.3248 26.2342 9.36432 25.8848 6.51896C25.5354 3.67361 19.9266 2.0209 13.3571 2.82753C6.78758 3.63416 1.74517 6.59468 2.09454 9.44004C2.4439 12.2854 8.05275 13.9381 14.6222 13.1315Z" id="Oval-20-Copy" fill="#000002" fill-rule="evenodd" stroke="none" />
        </g>
        <g id="Group-13" transform="translate(7.304348 9.777778)">
          <path d="M6.94715 11.2605C10.5451 11.5121 13.8934 7.42641 15.3485 1.56212C15.3819 1.42734 15.2382 1.58039 14.9797 1.70189C14.5325 1.91204 13.6867 2.27308 12.422 2.65335C10.6918 3.17357 8.22824 3.64894 7.39048 3.77031C6.52279 3.89601 4.7676 3.94406 3.25667 3.93323C2.36643 3.92685 1.69822 3.97392 1.21028 3.90783C0.870092 3.86176 0.5412 3.61703 0.60717 3.86566C1.74001 8.13521 4.05648 11.0584 6.94715 11.2605Z" id="Oval-19" fill="#6758FF" fill-rule="evenodd" stroke="none" />
          <path d="M9.86306 8.71704C11.8525 8.29417 12.8042 5.784 12.7178 5.37749C12.6314 4.97099 11.5084 6.67553 9.51901 7.09839C7.52958 7.52126 5.45958 7.53638 5.54598 7.94288C5.60047 8.19922 6.7694 8.75073 8.0629 8.79506C8.82064 8.82103 9.12815 8.87325 9.86306 8.71704Z" id="Oval-24" fill="#FF7FA7" fill-rule="evenodd" stroke="none" />
        </g>
      </g>
      <path d="M14.4657 11.7441C19.6496 11.7441 24.64 16.0135 24.64 6.45351C24.64 -3.10653 18.904 4.19388 13.7201 4.19388C8.53615 4.19388 4.48 1.19687 4.48 10.7569C4.48 20.3169 9.2818 11.7441 14.4657 11.7441Z" id="Oval-23-Copy-2" fill="#FFD5E2" fill-opacity="0.101811595" fill-rule="evenodd" stroke="#979797" stroke-opacity="0.101811595" stroke-width="0.6847826" filter="url(#filter_1)" />
    </g>
  </g>
</svg>