<?xml version="1.0" encoding="UTF-8"?>
<svg width="26px" height="26px" viewBox="0 0 26 26" version="1.1" xmlns="http://www.w3.org/2000/svg" xmlns:xlink="http://www.w3.org/1999/xlink">
    <title>币/stafi</title>
    <g id="币/stafi" stroke="none" stroke-width="1" fill="none" fill-rule="evenodd">
        <circle id="Oval-14-Copy-2" fill="#23292F" fill-rule="nonzero" cx="12.8635682" cy="12.8635682" r="12.8635682"></circle>
        <path d="M18.6649015,16.3775117 C18.025297,16.3413288 17.308794,16.1815588 16.5153922,15.8982006 C16.489373,15.8814741 16.4632198,15.8649624 16.4369327,15.8486667 L18.392539,4.69130418 L21.0631183,4.81920892 L18.6649015,16.3775117 Z M18.2666634,18.2968357 L17.6926908,21.0631181 L15.073364,21.0631181 L13.9132854,17.3950749 C14.5923761,17.4420846 15.2420891,17.5363086 15.8624246,17.6777463 L16.2526283,18.8897357 L16.2750165,17.7799393 C16.35566,17.8015357 16.4357853,17.8239647 16.5153922,17.8472262 C17.0991493,18.0817716 17.6829063,18.2316413 18.2666634,18.2968357 Z M13.1467113,14.9276896 L12.7261749,13.3938269 L12.3160528,14.9413967 C11.7116575,14.9803068 11.14716,15.0833386 10.6225604,15.250492 L12.1025256,10.2461697 L13.4972322,10.2461697 L15.0823141,15.2349321 C14.4878582,15.0509635 13.8426572,14.9485495 13.1467113,14.9276896 Z M11.5890444,17.4148128 L10.4923765,21.0631181 L7.96376219,21.0631181 L7.41672202,18.3263254 C8.08104853,18.2897332 8.6884846,18.1300333 9.23903048,17.8472262 C9.33652601,17.8187375 9.43479889,17.7914974 9.53384906,17.765507 L9.59658943,18.8897357 L9.93407463,17.6682354 C10.4643556,17.5494075 11.0160122,17.4649329 11.5890444,17.4148128 Z M7.02861928,16.3846821 L4.69130435,4.69130418 L7.01354748,4.69130418 L9.41513882,15.7894878 C9.35576946,15.824654 9.29706672,15.8608917 9.23903048,15.8982006 C8.55761038,16.2230384 7.85018633,16.385457 7.11675827,16.385457 C7.08749809,16.385457 7.05811837,16.3851987 7.02861923,16.3846815 L7.02861928,16.3846821 Z" id="Combined-Shape-Copy-4" fill="#00F3AB" fill-rule="nonzero"></path>
    </g>
</svg>