<?xml version="1.0" encoding="utf-8"?>
<!-- Generator: Adobe Illustrator 24.0.0, SVG Export Plug-In . SVG Version: 6.00 Build 0)  -->
<svg version="1.1" id="Layer_1" xmlns="http://www.w3.org/2000/svg" xmlns:xlink="http://www.w3.org/1999/xlink" x="0px" y="0px"
	 viewBox="0 0 400 400" style="enable-background:new 0 0 400 400;" xml:space="preserve">
<linearGradient id="SVGID_1_" gradientUnits="userSpaceOnUse" x1="1.6693" y1="217.6796" x2="429.7943" y2="179.5156" gradientTransform="matrix(1 0 0 -1 0 400)">
	<stop  offset="0" style="stop-color:#FFFFFF"/>
	<stop  offset="1" style="stop-color:#E4E4E4"/>
</linearGradient>
<circle style="fill:url(#SVGID_1_);" cx="200" cy="200" r="200"/>
<path style="fill:#161515;" d="M72,186c0-70.7,57.3-128,128-128s128,57.3,128,128v0c-18.5,7.7-38.7,12-60,12
	c-7.8,0-15.4-0.6-22.8-1.7c-13.8,45-55.7,77.7-105.2,77.7c-13.9,0-27.1-2.6-39.3-7.2C82.8,244.7,72,216.6,72,186z"/>
<path style="fill:#161515;" d="M278,208c28.4,0,55.1-7.6,78-20.9C355.4,272.8,285.8,342,200,342c-70.5,0-130.1-46.8-149.4-110.9
	c1.3,0.8,2.7,1.5,4.1,2.3C72.4,270.4,110.2,296,154,296c53.5,0,98.1-38.2,108-88.8C267.2,207.7,272.6,208,278,208z"/>
</svg>
