<svg enable-background="new 0 0 400 400" viewBox="0 0 400 400" xmlns="http://www.w3.org/2000/svg" xmlns:xlink="http://www.w3.org/1999/xlink"><linearGradient id="a" gradientTransform="matrix(1 0 0 -1 0 400)" gradientUnits="userSpaceOnUse" x1="1.6693" x2="429.7943" y1="217.6796" y2="179.5156"><stop offset="0" stop-color="#fff"/><stop offset="1" stop-color="#e4e4e4"/></linearGradient><circle cx="200" cy="200" fill="url(#a)" r="200"/><g fill="#161515"><path d="m72 186c0-70.7 57.3-128 128-128s128 57.3 128 128c-18.5 7.7-38.7 12-60 12-7.8 0-15.4-.6-22.8-1.7-13.8 45-55.7 77.7-105.2 77.7-13.9 0-27.1-2.6-39.3-7.2-17.9-22.1-28.7-50.2-28.7-80.8z"/><path d="m278 208c28.4 0 55.1-7.6 78-20.9-.6 85.7-70.2 154.9-156 154.9-70.5 0-130.1-46.8-149.4-110.9 1.3.8 2.7 1.5 4.1 2.3 17.7 37 55.5 62.6 99.3 62.6 53.5 0 98.1-38.2 108-88.8 5.2.5 10.6.8 16 .8z"/></g></svg>