<?xml version="1.0" encoding="UTF-8"?>
<svg width="28px" height="28px" viewBox="0 0 28 28" version="1.1" xmlns="http://www.w3.org/2000/svg" xmlns:xlink="http://www.w3.org/1999/xlink">
    <title>Group 2 Copy 54</title>
    <g id="StaFiHub" stroke="none" stroke-width="1" fill="none" fill-rule="evenodd">
        <g id="StaFi-rDOT-Copy-11" transform="translate(-436.000000, -211.000000)">
            <g id="Group-2-Copy-54" transform="translate(437.000000, 212.000000)">
                <ellipse id="Oval-5-Copy-2" stroke="#EEEEEE" stroke-width="0.5" fill="#FFFFFF" cx="12.9026068" cy="13" rx="12.9026068" ry="13"></ellipse>
                <path d="M13.8009171,15.2932265 C14.3111137,15.3255702 14.7994439,15.3920384 15.2659076,15.4926313 L15.6084917,16.5750212 L15.6283529,15.5802941 L15.8068182,15.6273486 C16.2583875,15.8035274 16.7099569,15.9145191 17.1615263,15.9603236 L16.6954077,18.2342799 L14.7184187,18.2342799 Z M12.1297857,15.3070081 L11.2608274,18.2342799 L9.35230551,18.2342799 L8.90634723,15.9801189 C9.42068871,15.9567583 9.89018616,15.8391681 10.3148396,15.6273486 C10.3853094,15.6073532 10.4563173,15.5881975 10.5278633,15.5698815 L10.5847143,16.5750212 L10.8797296,15.4874943 C11.2803385,15.4022435 11.6970238,15.3420814 12.1297857,15.3070081 Z M8.63511207,5.73529412 L10.4303529,14.1302941 L10.3148396,14.1988931 C9.87399783,14.4029581 9.41873626,14.5195668 8.94905484,14.5487189 L8.71301248,14.556007 C8.6841363,14.556007 8.65510598,14.555683 8.62592151,14.5550352 L6.88235294,5.73529412 L8.63511207,5.73529412 Z M17.2236318,5.73529412 L19.2393048,5.83294244 L17.4516249,14.5513526 C16.9632114,14.5272759 16.4149425,14.4097894 15.8068182,14.1988931 C15.7920865,14.189697 15.7772979,14.1805897 15.7624524,14.1715713 L17.2236318,5.73529412 Z M13.5288019,9.97613043 L14.7023762,13.7059886 C14.2024672,13.5584398 13.6552847,13.4846653 13.0608289,13.4846653 L13.2473529,13.4882941 L12.9468311,12.3791947 L12.6528948,13.4966873 C12.1990314,13.5239532 11.7748871,13.5975986 11.380462,13.7176235 L12.4761194,9.97613043 L13.5288019,9.97613043 Z" id="Combined-Shape-Copy" fill="#23292F"></path>
                <path d="M4.33333333,9.30566406 L4.33333333,5.23046875 C4.35872409,3.91014965 5.01887373,3.25 6.31380208,3.25 L8.21809896,3.25 L8.21809896,4.12597656 L6.7327474,4.12597656 C6.04719709,4.12597656 5.6917319,4.46874657 5.66634115,5.15429688 L5.66634115,9.30566406 L4.33333333,9.30566406 Z" id="r" fill="#00F3AB"></path>
            </g>
        </g>
    </g>
</svg>