<?xml version="1.0" encoding="UTF-8"?>
<svg width="28px" height="28px" viewBox="0 0 28 28" version="1.1" xmlns="http://www.w3.org/2000/svg" xmlns:xlink="http://www.w3.org/1999/xlink">
    <title>Group 2 Copy 53</title>
    <g id="StaFiHub" stroke="none" stroke-width="1" fill="none" fill-rule="evenodd">
        <g id="StaFi-rDOT-Copy-11" transform="translate(-435.000000, -553.000000)">
            <g id="Group-2-Copy-53" transform="translate(436.000000, 554.000000)">
                <ellipse id="Oval-5-Copy-2" stroke="#EEEEEE" stroke-width="0.5" fill="#FFFFFF" cx="12.9026068" cy="13" rx="12.9026068" ry="13"></ellipse>
                <path d="M3.68225663,18.5589412 C3.68225663,18.5589412 11.394712,15.4546694 12.8958907,16.2564026 L11.9903797,16.5277208 C12.0696419,16.5277208 13.5371942,16.6254932 13.5371942,16.6254932 C13.6068152,17.249964 13.9479615,17.8097448 14.466724,18.1507417 C15.350618,18.7447087 15.3674312,19.0673574 15.3674312,19.0673574 C15.3674312,19.0673574 14.908671,19.2580135 14.908671,19.5 C15.3352555,19.3757353 15.7764002,19.3107793 16.2201007,19.3068996 C16.6203267,19.3214365 17.0172493,19.3862956 17.4018285,19.5 C17.4018285,19.5 17.3561927,19.2555691 16.738908,19.0673574 C16.1216233,18.8791456 15.5259557,18.2142937 15.2257199,17.8452031 C14.8594373,17.3652641 14.7682052,16.7246441 14.9855313,16.1586302 C15.1992992,15.6013279 15.9462857,15.2909007 17.4618756,14.4891675 C19.2608881,13.5432201 19.6716106,12.8343706 19.9238086,12.2892898 C20.1760066,11.744209 20.5555046,10.6516031 20.7644687,10.1382983 C20.9382072,9.65851956 21.237144,9.23599638 21.6291476,8.91614404 C21.8957569,8.70837782 23.1111111,8.24151489 23.1111111,8.24151489 C23.1111111,8.24151489 22.1839832,7.43733738 21.8813456,7.19535083 C21.5030864,6.83077956 21.024714,6.59205795 20.5098688,6.51094444 C19.8661634,6.42539365 19.2128504,6.86048057 18.7709034,7.15135328 C18.3289564,7.442226 17.4738851,8.29284537 17.1280135,8.53727622 C16.7821419,8.78170707 15.8958461,9.02613793 14.4859391,9.90364469 C13.0760321,10.7811515 7.47963812,14.4158382 7.47963812,14.4158382 L8.92076962,14.4305041 L2.45249108,17.8452031 L3.09859837,17.8452031 L2.16666667,18.5784957 C2.68282242,18.698749 3.22459672,18.6148679 3.68225663,18.3438421 L3.68225663,18.5589412 Z" id="Path" fill="#333B43"></path>
                <path d="M4.33333333,9.25561725 L4.33333333,5.21410124 C4.35872409,3.90469387 5.01887373,3.25 6.31380208,3.25 L8.21809896,3.25 L8.21809896,4.11873709 L6.7327474,4.11873709 C6.04719709,4.11873709 5.6917319,4.45867429 5.66634115,5.13855888 L5.66634115,9.25561725 L4.33333333,9.25561725 Z" id="r" fill="#00F3AB"></path>
            </g>
        </g>
    </g>
</svg>