<?xml version="1.0" encoding="UTF-8"?>
<svg width="26px" height="26px" viewBox="0 0 26 26" version="1.1" xmlns="http://www.w3.org/2000/svg" xmlns:xlink="http://www.w3.org/1999/xlink">
    <title>Group 5 Copy 32</title>
    <g id="StaFiHub" stroke="none" stroke-width="1" fill="none" fill-rule="evenodd">
        <g id="StaFi-rDOT-Copy-11" transform="translate(-436.000000, -497.000000)">
            <g id="Group-5-Copy-32" transform="translate(436.000000, 497.000000)">
                <ellipse id="Oval-5-Copy" fill="#FFFFFF" cx="12.9026068" cy="13" rx="12.9026068" ry="13"></ellipse>
                <g id="matic-logo-white" transform="translate(5.777778, 7.944444)">
                    <polygon id="Shape" fill="#303741" points="5.53269492 4.80722667 7.12760779 8.44037037 9.5015153 7.03386667 9.50447668 7.03386667 9.50447668 4.2209363"></polygon>
                    <polygon id="Shape" fill="#23292F" points="12.5641888 2.1112 11.0860446 1.5385837 9.50293976 1.40646519 9.50293976 4.21939556 9.50293976 10.1430044 11.8783092 11.5494696 13.7555659 7.61407111 12.5730355 3.79715556"></polygon>
                    <polygon id="Shape" fill="#303741" points="12.4311514 1.40796741 11.8798086 2.81289185 11.8798086 11.555517 14.2551781 10.1490519 14.2551781 1.40796741"></polygon>
                    <polygon id="Shape" fill="#23292F" points="11.8799961 0.00150222222 9.50462663 1.40796741 11.8799961 2.81443259 14.255403 1.40796741"></polygon>
                    <polygon id="Shape" fill="#23292F" points="7.12910723 5.62586074 4.75223834 2.8949363 0 1.40646519 0 10.1490519 2.37540694 11.5555556 3.05532631 6.71793778 4.75223834 7.03386667 4.75223834 7.03232593 7.12910723 8.43882963"></polygon>
                    <polygon id="Shape" fill="#23292F" points="2.37686889 0 0 1.40646519 7.12764528 5.62740148 8.20521515 4.9894963 9.50451417 4.2209363"></polygon>
                    <polygon id="Shape" fill="#303741" points="2.37690637 5.62589926 2.37540694 5.62589926 2.37540694 11.5540148 4.75227583 10.1475496 4.75227583 7.03386667 4.75227583 7.03236444"></polygon>
                </g>
                <path d="M4.33333333,9.25561725 L4.33333333,5.21410124 C4.35872409,3.90469387 5.01887373,3.25 6.31380208,3.25 L8.21809896,3.25 L8.21809896,4.11873709 L6.7327474,4.11873709 C6.04719709,4.11873709 5.6917319,4.45867429 5.66634115,5.13855888 L5.66634115,9.25561725 L4.33333333,9.25561725 Z" id="r" fill="#00F3AB"></path>
            </g>
        </g>
    </g>
</svg>