<?xml version="1.0" encoding="UTF-8"?>
<svg width="36px" height="36px" viewBox="0 0 36 36" version="1.1" xmlns="http://www.w3.org/2000/svg" xmlns:xlink="http://www.w3.org/1999/xlink">
    <title>Group 9 Copy 6</title>
    <g id="StaFiHub" stroke="none" stroke-width="1" fill="none" fill-rule="evenodd">
        <g id="StaFi-rDOT-Copy-20" transform="translate(-965.000000, -267.000000)">
            <g id="Group-7" transform="translate(512.000000, 262.000000)">
                <g id="Group-9-Copy-6" transform="translate(453.000000, 5.000000)">
                    <ellipse id="Oval-5" fill="#FFFFFF" cx="17.8651479" cy="18" rx="17.8651479" ry="18"></ellipse>
                    <ellipse id="Oval-6" stroke="#23292F" stroke-width="0.5" cx="17.8651479" cy="18" rx="10.7190887" ry="10.8"></ellipse>
                    <path d="M17.8459278,1.45252066 C18.1697881,1.4760803 18.4620415,1.66420007 18.7325683,1.99195373 C19.0657297,2.39559177 19.3618308,3.00296904 19.6281564,3.80962832 C20.1810441,5.48424087 20.5935455,7.99656774 20.8699706,11.345565 C21.4903634,18.8618652 21.0993444,22.084917 20.5800268,25.1014197 L20.5800268,25.1014197 L20.4719049,25.7191944 C20.2889155,26.749552 20.1575072,27.4894237 20.0361778,28.2978975 C19.6137477,31.1127454 18.8781137,32.8326484 17.737143,33.3447413 C17.4829887,33.3089227 17.2509147,33.1476544 17.0313158,32.8830896 C16.7560875,32.5515044 16.5056802,32.0632692 16.2741484,31.422104 C15.7912477,30.08484 15.4010748,28.1009529 15.0996416,25.4715269 C14.189494,17.5322366 14.5445384,13.4938619 15.0999482,8.11065744 C15.4544902,4.67432623 16.3489079,2.43686293 17.8459278,1.45252066 Z" id="Rectangle" stroke="#23292F" stroke-width="0.5"></path>
                    <path d="M17.8459278,1.45252066 C18.1697881,1.4760803 18.4620415,1.66420007 18.7325683,1.99195373 C19.0657297,2.39559177 19.3618308,3.00296904 19.6281564,3.80962832 C20.1810441,5.48424087 20.5935455,7.99656774 20.8699706,11.345565 C21.4903634,18.8618652 21.0993444,22.084917 20.5800268,25.1014197 L20.5800268,25.1014197 L20.4719049,25.7191944 C20.2889155,26.749552 20.1575072,27.4894237 20.0361778,28.2978975 C19.6137477,31.1127454 18.8781137,32.8326484 17.737143,33.3447413 C17.4829887,33.3089227 17.2509147,33.1476544 17.0313158,32.8830896 C16.7560875,32.5515044 16.5056802,32.0632692 16.2741484,31.422104 C15.7912477,30.08484 15.4010748,28.1009529 15.0996416,25.4715269 C14.189494,17.5322366 14.5445384,13.4938619 15.0999482,8.11065744 C15.4544902,4.67432623 16.3489079,2.43686293 17.8459278,1.45252066 Z" id="Rectangle-Copy" stroke="#23292F" stroke-width="0.5" transform="translate(17.865148, 17.400000) rotate(-60.000000) translate(-17.865148, -17.400000) "></path>
                    <path d="M17.8459278,1.45252066 C18.1697881,1.4760803 18.4620415,1.66420007 18.7325683,1.99195373 C19.0657297,2.39559177 19.3618308,3.00296904 19.6281564,3.80962832 C20.1810441,5.48424087 20.5935455,7.99656774 20.8699706,11.345565 C21.4903634,18.8618652 21.0993444,22.084917 20.5800268,25.1014197 L20.5800268,25.1014197 L20.4719049,25.7191944 C20.2889155,26.749552 20.1575072,27.4894237 20.0361778,28.2978975 C19.6137477,31.1127454 18.8781137,32.8326484 17.737143,33.3447413 C17.4829887,33.3089227 17.2509147,33.1476544 17.0313158,32.8830896 C16.7560875,32.5515044 16.5056802,32.0632692 16.2741484,31.422104 C15.7912477,30.08484 15.4010748,28.1009529 15.0996416,25.4715269 C14.189494,17.5322366 14.5445384,13.4938619 15.0999482,8.11065744 C15.4544902,4.67432623 16.3489079,2.43686293 17.8459278,1.45252066 Z" id="Rectangle-Copy-2" stroke="#23292F" stroke-width="0.5" transform="translate(17.865148, 17.400000) rotate(-300.000000) translate(-17.865148, -17.400000) "></path>
                    <ellipse id="Oval-7" fill="#23292F" cx="18.4606528" cy="18.6" rx="1.78651479" ry="1.8"></ellipse>
                    <ellipse id="Oval-7-Copy" fill="#23292F" cx="7.14605916" cy="14.4" rx="1.19100986" ry="1.2"></ellipse>
                    <ellipse id="Oval-7-Copy-2" fill="#23292F" cx="15.4831282" cy="27.6" rx="1.19100986" ry="1.2"></ellipse>
                    <ellipse id="Oval-7-Copy-3" fill="#23292F" cx="25.0112071" cy="9.6" rx="1.19100986" ry="1.2"></ellipse>
                    <path d="M6,12.81547 L6,7.21952479 C6.03515643,5.4064992 6.94920979,4.5 8.7421875,4.5 L11.3789062,4.5 L11.3789062,5.70286674 L9.32226562,5.70286674 C8.37304213,5.70286674 7.88085955,6.17354901 7.84570312,7.11492769 L7.84570312,12.81547 L6,12.81547 Z" id="r" fill="#887CFF"></path>
                </g>
            </g>
        </g>
    </g>
</svg>