<?xml version="1.0" encoding="utf-8"?>
<svg width="27px" height="27px" viewBox="0 0 27 27" version="1.1" xmlns:xlink="http://www.w3.org/1999/xlink" xmlns="http://www.w3.org/2000/svg">
  <defs>
    <path d="M10.7259 5.8392C11.1283 1.9392 12.8384 0.866699 12.8384 0.866699C12.8384 0.866699 14.6491 0.866699 15.2527 8.1792C15.8563 15.4917 15.1385 17.2032 14.6491 20.4642C14.1597 23.7252 12.8384 24.2667 12.8384 24.2667C12.8384 24.2667 11.3853 24.1685 10.7259 18.4167C10.0665 12.6649 10.3235 9.7392 10.7259 5.8392Z" id="path_1" />
    <path d="M5.98809 11.0879C2.81178 8.78947 2.73802 6.77221 2.73802 6.77221C2.73802 6.77221 3.64338 5.20409 10.278 8.33763C16.9126 11.4712 18.0359 12.9485 20.6153 15.0028C23.1947 17.0571 23.003 18.4722 23.003 18.4722C23.003 18.4722 22.1914 19.6815 16.8805 17.3767C11.5696 15.0718 9.16439 13.3864 5.98809 11.0879Z" id="path_2" />
    <path d="M17.6404 7.31779C21.2191 5.71626 23.003 6.66102 23.003 6.66102C23.003 6.66102 23.9084 8.22914 17.8773 12.4081C11.8463 16.5871 10.0052 16.8212 6.93643 18.0279C3.86765 19.2346 2.73801 18.361 2.73801 18.361C2.73801 18.361 2.09649 17.0535 6.74801 13.6065C11.3995 10.1596 14.0618 8.91932 17.6404 7.31779Z" id="path_3" />
    <clipPath id="clip_1">
      <use xlink:href="#path_1" />
    </clipPath>
    <clipPath id="clip_2">
      <use xlink:href="#path_2" />
    </clipPath>
    <clipPath id="clip_3">
      <use xlink:href="#path_3" />
    </clipPath>
  </defs>
  <g id="Group-9-Copy-8" transform="translate(0.25 0.25)">
    <path d="M12.9026 26C20.0285 26 25.8052 20.1797 25.8052 13C25.8052 5.8203 20.0285 0 12.9026 0C5.77669 0 0 5.8203 0 13C0 20.1797 5.77669 26 12.9026 26Z" id="Oval-5" fill="#FFFFFF" fill-rule="evenodd" stroke="none" />
    <path d="M12.9026 20.8C17.1782 20.8 20.6442 17.3078 20.6442 13C20.6442 8.69213 17.1782 5.19995 12.9026 5.19995C8.62706 5.19995 5.16104 8.69213 5.16104 13C5.16104 17.3078 8.62706 20.8 12.9026 20.8Z" id="Oval-6" fill="none" fill-rule="evenodd" stroke="#23292F" stroke-width="0.5" />
    <g id="Rectangle">
      <g clip-path="url(#clip_1)">
        <use xlink:href="#path_1" fill="none" stroke="#23292F" stroke-width="1" />
      </g>
    </g>
    <g id="Rectangle-Copy">
      <g clip-path="url(#clip_2)">
        <use xlink:href="#path_2" fill="none" stroke="#23292F" stroke-width="1" />
      </g>
    </g>
    <g id="Rectangle-Copy-2">
      <g clip-path="url(#clip_3)">
        <use xlink:href="#path_3" fill="none" stroke="#23292F" stroke-width="1" />
      </g>
    </g>
    <path d="M13.3327 14.7333C14.0453 14.7333 14.6229 14.1513 14.6229 13.4333C14.6229 12.7153 14.0453 12.1333 13.3327 12.1333C12.6201 12.1333 12.0424 12.7153 12.0424 13.4333C12.0424 14.1513 12.6201 14.7333 13.3327 14.7333Z" id="Oval-7" fill="#23292F" fill-rule="evenodd" stroke="none" />
    <path d="M5.16105 11.2667C5.63611 11.2667 6.02122 10.8786 6.02122 10.4C6.02122 9.92134 5.63611 9.53333 5.16105 9.53333C4.68599 9.53333 4.30087 9.92134 4.30087 10.4C4.30087 10.8786 4.68599 11.2667 5.16105 11.2667Z" id="Oval-7-Copy" fill="#23292F" fill-rule="evenodd" stroke="none" />
    <path d="M11.1823 20.8C11.6573 20.8 12.0424 20.412 12.0424 19.9333C12.0424 19.4547 11.6573 19.0667 11.1823 19.0667C10.7072 19.0667 10.3221 19.4547 10.3221 19.9333C10.3221 20.412 10.7072 20.8 11.1823 20.8Z" id="Oval-7-Copy-2" fill="#23292F" fill-rule="evenodd" stroke="none" />
    <path d="M18.0637 7.79998C18.5387 7.79998 18.9238 7.41196 18.9238 6.93332C18.9238 6.45467 18.5387 6.06665 18.0637 6.06665C17.5886 6.06665 17.2035 6.45467 17.2035 6.93332C17.2035 7.41196 17.5886 7.79998 18.0637 7.79998Z" id="Oval-7-Copy-3" fill="#23292F" fill-rule="evenodd" stroke="none" />
  </g>
</svg>