<?xml version="1.0" encoding="utf-8"?>
<svg width="18px" height="18px" viewBox="0 0 18 18" version="1.1" xmlns:xlink="http://www.w3.org/1999/xlink" xmlns="http://www.w3.org/2000/svg">
  <g id="layers-outline">
    <path d="M18 18L0 18L1.90735e-06 -1.90735e-06L18 0L18 18Z" id="Rectangle-path" fill="#000000" fill-opacity="0" fill-rule="evenodd" stroke="none" />
    <path d="M15.75 8.5125C15.7324 8.22804 15.5552 7.97811 15.2925 7.8675L13.68 7.1775L15.375 6.2025C15.62 6.06155 15.765 5.79479 15.75 5.5125C15.7324 5.22804 15.5552 4.97811 15.2925 4.8675L9.2925 2.31C9.10554 2.23081 8.89446 2.23081 8.7075 2.31L2.7075 4.8675C2.44484 4.97811 2.26756 5.22804 2.25 5.5125C2.23497 5.79479 2.37995 6.06155 2.625 6.2025L4.32 7.1775L2.7075 7.8675C2.44484 7.97811 2.26756 8.22804 2.25 8.5125C2.23497 8.79479 2.37995 9.06155 2.625 9.2025L4.32 10.1775L2.7075 10.8675C2.44484 10.9781 2.26756 11.228 2.25 11.5125C2.23497 11.7948 2.37995 12.0616 2.625 12.2025L8.625 15.6525C8.85705 15.7865 9.14295 15.7865 9.375 15.6525L15.375 12.2025C15.62 12.0616 15.765 11.7948 15.75 11.5125C15.7324 11.228 15.5552 10.9781 15.2925 10.8675L13.68 10.1775L15.375 9.2025C15.62 9.06155 15.765 8.79479 15.75 8.5125L15.75 8.5125ZM9 3.8175L13.32 5.655L9 8.1375L4.68 5.655L9 3.8175ZM8.625 9.6525C8.85705 9.78648 9.14295 9.78648 9.375 9.6525L12.0525 8.1525L13.32 8.6925L9 11.1375L4.68 8.655L5.9475 8.115L8.625 9.6525ZM13.32 11.655L9 14.1375L4.68 11.655L5.9475 11.115L8.625 12.6525C8.85705 12.7865 9.14295 12.7865 9.375 12.6525L12.0525 11.115L13.32 11.655Z" id="Shape" fill="#FFFFFF" stroke="none" />
  </g>
</svg>