<?xml version="1.0" encoding="utf-8"?>
<svg width="17px" height="11px" viewBox="0 0 17 11" version="1.1" xmlns:xlink="http://www.w3.org/1999/xlink" xmlns="http://www.w3.org/2000/svg">
  <g id="Group-5-Copy-4" transform="translate(0.5 0.5)">
    <path d="M8.60913 8.98188L14.799 2.79203Q14.8622 2.72885 14.9118 2.65456Q14.9614 2.58027 14.9956 2.49772Q15.0298 2.41517 15.0473 2.32753Q15.0647 2.2399 15.0647 2.15055Q15.0647 2.06119 15.0473 1.97356Q15.0298 1.88592 14.9956 1.80337Q14.9614 1.72082 14.9118 1.64653Q14.8622 1.57224 14.799 1.50906L14.7976 1.50764Q14.7344 1.44446 14.6601 1.39482Q14.5858 1.34518 14.5032 1.31099Q14.4207 1.27679 14.3331 1.25936Q14.2454 1.24193 14.1561 1.24193Q14.0667 1.24193 13.9791 1.25936Q13.8914 1.27679 13.8089 1.31099Q13.7263 1.34518 13.6521 1.39482Q13.5778 1.44446 13.5146 1.50764L7.32474 7.69749Q7.26155 7.76067 7.21191 7.83497Q7.16227 7.90926 7.12808 7.99181Q7.09388 8.07436 7.07645 8.16199Q7.05902 8.24963 7.05902 8.33898Q7.05902 8.42833 7.07645 8.51597Q7.09388 8.6036 7.12808 8.68615Q7.16227 8.7687 7.21191 8.84299Q7.26155 8.91729 7.32474 8.98047L7.32615 8.98188Q7.38933 9.04506 7.46362 9.0947Q7.53792 9.14435 7.62047 9.17854Q7.70302 9.21273 7.79065 9.23016Q7.87829 9.2476 7.96764 9.2476Q8.05699 9.2476 8.14462 9.23016Q8.23226 9.21273 8.31481 9.17854Q8.39736 9.14435 8.47165 9.0947Q8.54595 9.04506 8.60913 8.98188Z" id="Rectangle-3" fill="#A4A4A4" fill-rule="evenodd" stroke="none" />
    <path d="M0.842987 2.90518L7.03283 9.09502Q7.09602 9.15821 7.17031 9.20785Q7.2446 9.25749 7.32715 9.29168Q7.4097 9.32587 7.49734 9.3433Q7.58497 9.36074 7.67432 9.36074Q7.76367 9.36074 7.85131 9.3433Q7.93894 9.32587 8.02149 9.29168Q8.10404 9.25749 8.17834 9.20785Q8.25263 9.15821 8.31581 9.09502L8.31723 9.09361Q8.38041 9.03043 8.43005 8.95613Q8.47969 8.88184 8.51388 8.79929Q8.54807 8.71674 8.56551 8.62911Q8.58294 8.54147 8.58294 8.45212Q8.58294 8.36277 8.56551 8.27513Q8.54807 8.1875 8.51388 8.10495Q8.47969 8.0224 8.43005 7.94811Q8.38041 7.87381 8.31723 7.81063L2.12738 1.62078Q2.0642 1.5576 1.9899 1.50796Q1.91561 1.45832 1.83306 1.42413Q1.75051 1.38993 1.66288 1.3725Q1.57524 1.35507 1.48589 1.35507Q1.39654 1.35507 1.3089 1.3725Q1.22127 1.38993 1.13872 1.42413Q1.05617 1.45832 0.981875 1.50796Q0.907582 1.5576 0.844401 1.62078L0.842987 1.6222Q0.779805 1.68538 0.730164 1.75967Q0.680523 1.83397 0.64633 1.91652Q0.612136 1.99907 0.594705 2.0867Q0.577273 2.17434 0.577273 2.26369Q0.577273 2.35304 0.594705 2.44067Q0.612136 2.52831 0.64633 2.61086Q0.680523 2.69341 0.730164 2.7677Q0.779805 2.842 0.842987 2.90518Z" id="Rectangle-3-Copy-2" fill="#A4A4A4" fill-rule="evenodd" stroke="none" />
  </g>
</svg>