<?xml version="1.0" encoding="utf-8"?>
<svg width="12px" height="12px" viewBox="0 0 12 12" version="1.1" xmlns:xlink="http://www.w3.org/1999/xlink" xmlns="http://www.w3.org/2000/svg">
  <g id="Group">
    <path d="M2.60518 0.908124L11.0919 9.39482Q11.1335 9.43647 11.1709 9.482Q11.2083 9.52754 11.241 9.57651Q11.2737 9.62549 11.3015 9.67744Q11.3292 9.72938 11.3518 9.7838Q11.3743 9.83822 11.3914 9.89459Q11.4085 9.95096 11.42 10.0087Q11.4315 10.0665 11.4373 10.1251Q11.4431 10.1837 11.4431 10.2426Q11.4431 10.3015 11.4373 10.3602Q11.4315 10.4188 11.42 10.4766Q11.4085 10.5343 11.3914 10.5907Q11.3743 10.6471 11.3518 10.7015Q11.3292 10.7559 11.3015 10.8078Q11.2737 10.8598 11.241 10.9088Q11.2083 10.9577 11.1709 11.0033Q11.1335 11.0488 11.0919 11.0905L11.0905 11.0919Q11.0488 11.1335 11.0033 11.1709Q10.9577 11.2083 10.9088 11.241Q10.8598 11.2737 10.8078 11.3015Q10.7559 11.3292 10.7015 11.3518Q10.6471 11.3743 10.5907 11.3914Q10.5343 11.4085 10.4766 11.42Q10.4188 11.4315 10.3602 11.4373Q10.3015 11.4431 10.2426 11.4431Q10.1837 11.4431 10.1251 11.4373Q10.0665 11.4315 10.0087 11.42Q9.95095 11.4085 9.89459 11.3914Q9.83822 11.3743 9.7838 11.3518Q9.72938 11.3292 9.67743 11.3015Q9.62549 11.2737 9.57651 11.241Q9.52753 11.2083 9.482 11.1709Q9.43647 11.1335 9.39482 11.0919L0.908125 2.60518Q0.866474 2.56353 0.829106 2.518Q0.791739 2.47246 0.759014 2.42349Q0.726289 2.37451 0.698522 2.32256Q0.670755 2.27062 0.648214 2.2162Q0.625673 2.16178 0.608574 2.10541Q0.591476 2.04904 0.579984 1.99127Q0.568493 1.9335 0.562719 1.87488Q0.556946 1.81626 0.556946 1.75736Q0.556946 1.69846 0.562719 1.63984Q0.568493 1.58122 0.579984 1.52345Q0.591476 1.46567 0.608575 1.40931Q0.625673 1.35294 0.648214 1.29852Q0.670756 1.2441 0.698522 1.19215Q0.726289 1.14021 0.759014 1.09123Q0.791739 1.04225 0.829107 0.996721Q0.866474 0.951189 0.908125 0.909538L0.909539 0.908124Q0.95119 0.866473 0.996723 0.829105Q1.04226 0.791737 1.09123 0.759013Q1.14021 0.726288 1.19216 0.698521Q1.2441 0.670754 1.29852 0.648213Q1.35294 0.625672 1.40931 0.608573Q1.46568 0.591475 1.52345 0.579983Q1.58122 0.568492 1.63984 0.562718Q1.69846 0.556945 1.75736 0.556945Q1.81626 0.556945 1.87488 0.562718Q1.9335 0.568492 1.99127 0.579983Q2.04905 0.591475 2.10541 0.608573Q2.16178 0.625672 2.2162 0.648213Q2.27062 0.670755 2.32257 0.698521Q2.37451 0.726288 2.42349 0.759013Q2.47247 0.791738 2.518 0.829105Q2.56353 0.866473 2.60518 0.908124L2.60518 0.908124Z" id="Rectangle-3" fill="#22243D" fill-rule="evenodd" stroke="none" />
    <path d="M0.908124 9.39482L9.39482 0.908125Q9.43647 0.866474 9.482 0.829106Q9.52753 0.791739 9.57651 0.759014Q9.62549 0.726289 9.67743 0.698522Q9.72938 0.670756 9.7838 0.648214Q9.83822 0.625673 9.89459 0.608574Q9.95095 0.591476 10.0087 0.579984Q10.0665 0.568493 10.1251 0.562719Q10.1837 0.556946 10.2426 0.556946Q10.3015 0.556946 10.3602 0.562719Q10.4188 0.568493 10.4766 0.579984Q10.5343 0.591476 10.5907 0.608574Q10.6471 0.625673 10.7015 0.648214Q10.7559 0.670756 10.8078 0.698522Q10.8598 0.726289 10.9088 0.759014Q10.9577 0.791739 11.0033 0.829106Q11.0488 0.866474 11.0905 0.908125L11.0919 0.909539Q11.1335 0.95119 11.1709 0.996723Q11.2083 1.04226 11.241 1.09123Q11.2737 1.14021 11.3015 1.19216Q11.3292 1.2441 11.3518 1.29852Q11.3743 1.35294 11.3914 1.40931Q11.4085 1.46568 11.42 1.52345Q11.4315 1.58122 11.4373 1.63984Q11.4431 1.69846 11.4431 1.75736Q11.4431 1.81626 11.4373 1.87488Q11.4315 1.9335 11.42 1.99127Q11.4085 2.04904 11.3914 2.10541Q11.3743 2.16178 11.3518 2.2162Q11.3292 2.27062 11.3015 2.32256Q11.2737 2.37451 11.241 2.42349Q11.2083 2.47247 11.1709 2.518Q11.1335 2.56353 11.0919 2.60518L2.60518 11.0919Q2.56353 11.1335 2.518 11.1709Q2.47246 11.2083 2.42349 11.241Q2.37451 11.2737 2.32256 11.3015Q2.27062 11.3292 2.2162 11.3518Q2.16178 11.3743 2.10541 11.3914Q2.04904 11.4085 1.99127 11.42Q1.9335 11.4315 1.87488 11.4373Q1.81626 11.4431 1.75736 11.4431Q1.69846 11.4431 1.63984 11.4373Q1.58122 11.4315 1.52345 11.42Q1.46567 11.4085 1.40931 11.3914Q1.35294 11.3743 1.29852 11.3518Q1.2441 11.3292 1.19215 11.3015Q1.14021 11.2737 1.09123 11.241Q1.04225 11.2083 0.996722 11.1709Q0.951189 11.1335 0.909538 11.0919L0.908124 11.0905Q0.866473 11.0488 0.829105 11.0033Q0.791738 10.9577 0.759013 10.9088Q0.726288 10.8598 0.698521 10.8078Q0.670755 10.7559 0.648213 10.7015Q0.625672 10.6471 0.608573 10.5907Q0.591475 10.5343 0.579983 10.4766Q0.568492 10.4188 0.562718 10.3602Q0.556945 10.3015 0.556945 10.2426Q0.556945 10.1837 0.562718 10.1251Q0.568492 10.0665 0.579983 10.0087Q0.591475 9.95096 0.608573 9.89459Q0.625672 9.83822 0.648213 9.7838Q0.670755 9.72938 0.698521 9.67743Q0.726288 9.62549 0.759013 9.57651Q0.791738 9.52754 0.829105 9.482Q0.866473 9.43647 0.908124 9.39482L0.908124 9.39482Z" id="Rectangle-3-Copy-2" fill="#22243D" fill-rule="evenodd" stroke="none" />
  </g>
</svg>