<?xml version="1.0" encoding="utf-8"?>
<svg width="24px" height="24px" viewBox="0 0 24 24" version="1.1" xmlns:xlink="http://www.w3.org/1999/xlink" xmlns="http://www.w3.org/2000/svg">
  <g id="trending-up-outline">
    <path d="M0 24L-1.04907e-06 0L24 -1.90735e-06L24 24L0 24Z" id="Rectangle-path" fill="#000000" fill-opacity="0" fill-rule="evenodd" stroke="none" />
    <path d="M21 7C21.0095 6.93032 21.0095 6.85968 21 6.79C20.9913 6.73129 20.9745 6.67407 20.95 6.62C20.9236 6.57113 20.8935 6.52433 20.86 6.48C20.822 6.41675 20.7748 6.35947 20.72 6.31L20.6 6.24C20.5423 6.19696 20.4782 6.16322 20.41 6.14L20.21 6.14C20.1491 6.081 20.0779 6.03356 20 6L15 6C14.4477 6 14 6.44772 14 7C14 7.55228 14.4477 8 15 8L17.83 8L13.83 12.71L9.51 10.14C9.08729 9.88858 8.54451 9.98187 8.23 10.36L3.23 16.36C3.05994 16.5641 2.97807 16.8274 3.00246 17.092C3.02685 17.3565 3.15549 17.6005 3.36 17.77C3.53991 17.9191 3.76635 18.0005 4 18C4.29743 18.0005 4.57964 17.8685 4.77 17.64L9.22 12.3L13.49 14.86C13.9081 15.108 14.444 15.0194 14.76 14.65L19 9.7L19 12C19 12.5523 19.4477 13 20 13C20.5523 13 21 12.5523 21 12L21 7Z" id="Shape" fill="#FFFFFF" fill-rule="evenodd" stroke="none" />
  </g>
</svg>