<?xml version="1.0" encoding="utf-8"?>
<svg width="24px" height="24px" viewBox="0 0 24 24" version="1.1" xmlns:xlink="http://www.w3.org/1999/xlink" xmlns="http://www.w3.org/2000/svg">
  <g id="menu-arrow-outline" transform="matrix(-1 8.742278E-08 -8.742278E-08 -1 24 24)">
    <path d="M24 24L-1.90735e-06 24L0 0L24 1.90735e-06L24 24Z" id="Rectangle-path" fill="#000000" fill-opacity="0" fill-rule="evenodd" stroke="none" />
    <path d="M20.05 11L5.91 11L7.21 9.71C7.60212 9.31788 7.60212 8.68212 7.21 8.29C6.81788 7.89788 6.18212 7.89788 5.79 8.29L2.79 11.29C2.60069 11.4778 2.4942 11.7334 2.4942 12C2.4942 12.2666 2.60069 12.5222 2.79 12.71L5.79 15.71C5.97777 15.8993 6.23336 16.0058 6.5 16.0058C6.76664 16.0058 7.02223 15.8993 7.21 15.71C7.39931 15.5222 7.5058 15.2666 7.5058 15C7.5058 14.7334 7.39931 14.4778 7.21 14.29L5.91 13L20.05 13C20.5639 12.9749 20.9749 12.5639 21 12.05L21 12C21.0007 11.4667 20.5827 11.0267 20.05 11Z" id="Shape" fill="#FFFFFF" fill-rule="evenodd" stroke="none" />
    <path d="M3.949 17L20.051 17Q20.1445 17 20.2361 17.0182Q20.3278 17.0365 20.4142 17.0722Q20.5005 17.108 20.5782 17.1599Q20.6559 17.2119 20.722 17.278Q20.7881 17.344 20.8401 17.4218Q20.892 17.4995 20.9278 17.5858Q20.9635 17.6722 20.9818 17.7639Q21 17.8555 21 17.949L21 18.051Q21 18.1445 20.9818 18.2361Q20.9635 18.3278 20.9278 18.4142Q20.892 18.5005 20.8401 18.5782Q20.7881 18.656 20.722 18.722Q20.6559 18.7881 20.5782 18.8401Q20.5005 18.892 20.4142 18.9278Q20.3278 18.9635 20.2361 18.9818Q20.1445 19 20.051 19L3.949 19Q3.85553 19 3.76386 18.9818Q3.67219 18.9635 3.58583 18.9278Q3.49948 18.892 3.42176 18.8401Q3.34405 18.7881 3.27796 18.722Q3.21186 18.656 3.15993 18.5782Q3.10801 18.5005 3.07224 18.4142Q3.03647 18.3278 3.01823 18.2361Q3 18.1445 3 18.051L3 17.949Q3 17.8555 3.01823 17.7639Q3.03647 17.6722 3.07224 17.5858Q3.10801 17.4995 3.15993 17.4218Q3.21186 17.344 3.27796 17.278Q3.34405 17.2119 3.42176 17.1599Q3.49948 17.108 3.58583 17.0722Q3.67219 17.0365 3.76386 17.0182Q3.85553 17 3.949 17Z" id="Rectangle-path" fill="#FFFFFF" fill-rule="evenodd" stroke="none" />
    <path d="M3.949 5L20.051 5Q20.1445 5 20.2361 5.01823Q20.3278 5.03647 20.4142 5.07224Q20.5005 5.10801 20.5782 5.15993Q20.6559 5.21186 20.722 5.27796Q20.7881 5.34405 20.8401 5.42176Q20.892 5.49948 20.9278 5.58583Q20.9635 5.67219 20.9818 5.76386Q21 5.85553 21 5.949L21 6.051Q21 6.14447 20.9818 6.23614Q20.9635 6.32781 20.9278 6.41417Q20.892 6.50052 20.8401 6.57824Q20.7881 6.65595 20.722 6.72204Q20.6559 6.78814 20.5782 6.84006Q20.5005 6.89199 20.4142 6.92776Q20.3278 6.96353 20.2361 6.98176Q20.1445 7 20.051 7L3.949 7Q3.85553 7 3.76386 6.98176Q3.67219 6.96353 3.58583 6.92776Q3.49948 6.89199 3.42176 6.84006Q3.34405 6.78814 3.27796 6.72204Q3.21186 6.65595 3.15993 6.57824Q3.10801 6.50052 3.07224 6.41417Q3.03647 6.32781 3.01823 6.23614Q3 6.14447 3 6.051L3 5.949Q3 5.85553 3.01823 5.76386Q3.03647 5.67219 3.07224 5.58583Q3.10801 5.49948 3.15993 5.42176Q3.21186 5.34405 3.27796 5.27796Q3.34405 5.21186 3.42176 5.15993Q3.49948 5.10801 3.58583 5.07224Q3.67219 5.03647 3.76386 5.01823Q3.85553 5 3.949 5Z" id="Rectangle-path" fill="#FFFFFF" fill-rule="evenodd" stroke="none" />
  </g>
</svg>