<?xml version="1.0" encoding="utf-8"?>
<svg width="37px" height="37px" viewBox="0 0 37 37" version="1.1" xmlns:xlink="http://www.w3.org/1999/xlink" xmlns="http://www.w3.org/2000/svg">
  <path d="M18.2402 36.375C28.1068 36.375 36.1053 28.3161 36.1053 18.375C36.1053 8.43387 28.1068 0.375 18.2402 0.375C8.3735 0.375 0.375 8.43387 0.375 18.375C0.375 28.3161 8.3735 36.375 18.2402 36.375Z" id="Oval-5-Copy" fill="#6758FF" fill-rule="evenodd" stroke="none" />
  <path d="M6.375 12.7598L6.375 7.11719C6.41016 5.28905 7.32421 4.375 9.11719 4.375L11.7539 4.375L11.7539 5.58789L9.69727 5.58789C8.74804 5.58789 8.25586 6.0625 8.2207 7.01172L8.2207 12.7598L6.375 12.7598Z" id="r-copy-3" fill="#FFFFFF" fill-rule="evenodd" stroke="none" />
  <path d="M3.375 19.0586C3.375 19.0586 10.5006 15.9088 14.7347 15.6049C16.6505 15.4674 20.5128 15.0219 25.5523 15.9364C27.938 16.3694 33.375 18.4231 33.375 18.4231L33.375 26.2422C33.375 26.2422 27.3337 22.0425 18.375 22.0425C9.41631 22.0425 3.375 27.375 3.375 27.375L3.375 19.0586Z" id="Rectangle-6" fill="#CFCFCF" fill-rule="evenodd" stroke="none" />
  <path d="M12.5024 22.7968C12.0113 22.4185 11.3304 21.8022 11.1915 21.2059C11.0768 20.714 10.6361 18.3549 13.7454 16.5979C14.4517 16.1988 15.3165 15.7996 15.9874 15.507C17.8305 15.3699 20.5726 15.2336 23.9429 15.6849L22.9643 22.4035C21.5408 22.1741 20.0007 22.0337 18.363 22.0337C16.2298 22.0337 14.2622 22.3361 12.5024 22.7968Z" id="Combined-Shape" fill="#00CD90" fill-rule="evenodd" stroke="none" />
  <path d="M19.3099 15.4639C17.9873 15.7994 17.0038 17.065 17.0038 18.575C17.0038 20.085 17.9873 21.3506 19.3099 21.6861C20.6325 21.3506 21.616 20.085 21.616 18.575C21.616 17.065 20.6325 15.7994 19.3099 15.4639Z" id="Combined-Shape" fill="#E45264" fill-rule="evenodd" stroke="none" />
  <path d="M19.6287 19.2294L19.9955 17.3076L19.5821 17.2861L19.2822 19.1461C19.2883 19.1499 19.2914 19.152 19.2914 19.152C19.2914 19.152 19.4717 19.2192 19.6287 19.2294ZM19.5696 19.5393C19.4193 19.5206 19.2914 19.4669 19.2914 19.4669C19.2914 19.4669 19.2784 19.463 19.2548 19.4568L19.2508 19.6758L19.1807 19.4391C19.1066 19.4229 19.0009 19.4039 18.8799 19.3943L19.0682 20.0417L19.4737 20.0417L19.5696 19.5393ZM18.7664 18.9953L18.7048 18.7508L18.6446 18.9979C18.5446 19.006 18.4556 19.0274 18.3822 19.0519L18.6083 18.221L18.8242 18.221L19.0662 19.0493C18.9833 19.0223 18.8812 18.9995 18.7664 18.9953ZM18.2807 19.438C18.3461 19.4239 18.4352 19.4078 18.537 19.3979L18.359 20.0417L17.9675 20.0417L17.8761 19.5444C18.039 19.5345 18.1649 19.4669 18.1649 19.4669C18.1649 19.4669 18.1807 19.4621 18.209 19.4549L18.2203 19.6758L18.2807 19.438ZM18.1889 19.1374L17.8204 17.2861L17.4609 17.2861L17.8184 19.2305C17.8244 19.2307 17.8304 19.2307 17.8364 19.2307C18.0067 19.2307 18.1649 19.152 18.1649 19.152C18.1649 19.152 18.1732 19.1465 18.1889 19.1374Z" id="Combined-Shape-Copy" fill="#FFFFFF" fill-rule="evenodd" stroke="none" />
  <path d="M23.9549 15.6861C24.4681 15.7548 24.9959 15.837 25.5372 15.9349C27.9276 16.367 33.375 18.4164 33.375 18.4164L33.375 26.2194C33.375 26.2194 29.2887 23.3901 22.8522 22.3808L23.9549 15.6861Z" id="Combined-Shape" fill="#FFD061" fill-rule="evenodd" stroke="none" />
</svg>