<?xml version="1.0" encoding="utf-8"?>
<svg width="4px" height="22px" viewBox="0 0 4 22" version="1.1" xmlns:xlink="http://www.w3.org/1999/xlink" xmlns="http://www.w3.org/2000/svg">
  <g id="Group-6" transform="matrix(-1 8.742278E-08 -8.742278E-08 -1 4 22)">
    <path d="M0.627571 0L3.37243 0Q3.43424 0 3.49486 0.0120586Q3.55548 0.0241172 3.61259 0.047771Q3.66969 0.0714248 3.72109 0.105765Q3.77248 0.140105 3.81619 0.183811Q3.85989 0.227518 3.89423 0.278911Q3.92857 0.330305 3.95223 0.38741Q3.97588 0.444516 3.98794 0.505138Q4 0.565761 4 0.627571L4 3.37243Q4 3.43424 3.98794 3.49486Q3.97588 3.55548 3.95223 3.61259Q3.92857 3.66969 3.89423 3.72109Q3.85989 3.77248 3.81619 3.81619Q3.77248 3.85989 3.72109 3.89423Q3.66969 3.92857 3.61259 3.95223Q3.55548 3.97588 3.49486 3.98794Q3.43424 4 3.37243 4L0.627571 4Q0.565761 4 0.505138 3.98794Q0.444516 3.97588 0.38741 3.95223Q0.330305 3.92857 0.278911 3.89423Q0.227518 3.85989 0.183811 3.81619Q0.140105 3.77248 0.105765 3.72109Q0.0714248 3.66969 0.047771 3.61259Q0.0241172 3.55548 0.0120586 3.49486Q0 3.43424 0 3.37243L0 0.627571Q0 0.565761 0.0120586 0.505138Q0.0241172 0.444516 0.047771 0.38741Q0.0714248 0.330305 0.105765 0.278911Q0.140105 0.227518 0.183811 0.183811Q0.227518 0.140105 0.278911 0.105765Q0.330305 0.0714248 0.38741 0.047771Q0.444516 0.0241172 0.505138 0.0120586Q0.565761 0 0.627571 0Z" id="Rectangle-10" fill="#FFFFFF" fill-rule="evenodd" stroke="none" />
    <path d="M0.627571 9L3.37243 9Q3.43424 9 3.49486 9.01206Q3.55548 9.02412 3.61259 9.04777Q3.66969 9.07142 3.72109 9.10576Q3.77248 9.1401 3.81619 9.18381Q3.85989 9.22752 3.89423 9.27891Q3.92857 9.3303 3.95223 9.38741Q3.97588 9.44451 3.98794 9.50514Q4 9.56576 4 9.62757L4 12.3724Q4 12.4342 3.98794 12.4949Q3.97588 12.5555 3.95223 12.6126Q3.92857 12.6697 3.89423 12.7211Q3.85989 12.7725 3.81619 12.8162Q3.77248 12.8599 3.72109 12.8942Q3.66969 12.9286 3.61259 12.9522Q3.55548 12.9759 3.49486 12.9879Q3.43424 13 3.37243 13L0.627571 13Q0.565761 13 0.505138 12.9879Q0.444516 12.9759 0.38741 12.9522Q0.330305 12.9286 0.278911 12.8942Q0.227518 12.8599 0.183811 12.8162Q0.140105 12.7725 0.105765 12.7211Q0.0714248 12.6697 0.047771 12.6126Q0.0241172 12.5555 0.0120586 12.4949Q0 12.4342 0 12.3724L0 9.62757Q0 9.56576 0.0120586 9.50514Q0.0241172 9.44451 0.047771 9.38741Q0.0714248 9.3303 0.105765 9.27891Q0.140105 9.22752 0.183811 9.18381Q0.227518 9.1401 0.278911 9.10576Q0.330305 9.07142 0.38741 9.04777Q0.444516 9.02412 0.505138 9.01206Q0.565761 9 0.627571 9Z" id="Rectangle-10-Copy" fill="#FFFFFF" fill-rule="evenodd" stroke="none" />
    <path d="M0.627571 18L3.37243 18Q3.43424 18 3.49486 18.0121Q3.55548 18.0241 3.61259 18.0478Q3.66969 18.0714 3.72109 18.1058Q3.77248 18.1401 3.81619 18.1838Q3.85989 18.2275 3.89423 18.2789Q3.92857 18.3303 3.95223 18.3874Q3.97588 18.4445 3.98794 18.5051Q4 18.5658 4 18.6276L4 21.3724Q4 21.4342 3.98794 21.4949Q3.97588 21.5555 3.95223 21.6126Q3.92857 21.6697 3.89423 21.7211Q3.85989 21.7725 3.81619 21.8162Q3.77248 21.8599 3.72109 21.8942Q3.66969 21.9286 3.61259 21.9522Q3.55548 21.9759 3.49486 21.9879Q3.43424 22 3.37243 22L0.627571 22Q0.565761 22 0.505138 21.9879Q0.444516 21.9759 0.38741 21.9522Q0.330305 21.9286 0.278911 21.8942Q0.227518 21.8599 0.183811 21.8162Q0.140105 21.7725 0.105765 21.7211Q0.0714248 21.6697 0.047771 21.6126Q0.0241172 21.5555 0.0120586 21.4949Q0 21.4342 0 21.3724L0 18.6276Q0 18.5658 0.0120586 18.5051Q0.0241172 18.4445 0.047771 18.3874Q0.0714248 18.3303 0.105765 18.2789Q0.140105 18.2275 0.183811 18.1838Q0.227518 18.1401 0.278911 18.1058Q0.330305 18.0714 0.38741 18.0478Q0.444516 18.0241 0.505138 18.0121Q0.565761 18 0.627571 18Z" id="Rectangle-10-Copy-2" fill="#FFFFFF" fill-rule="evenodd" stroke="none" />
  </g>
</svg>