<?xml version="1.0" encoding="utf-8"?>
<svg width="33px" height="33px" viewBox="0 0 33 33" version="1.1" xmlns:xlink="http://www.w3.org/1999/xlink" xmlns="http://www.w3.org/2000/svg">
  <g id="Group-Copy-26" transform="matrix(0.70710665 0.7071069 -0.7071069 0.70710665 16.263672 0)">
    <path d="M1.81718 8.00489L21.1534 8.00489Q21.2427 8.00489 21.3315 8.01364Q21.4203 8.02239 21.5079 8.03981Q21.5955 8.05723 21.6809 8.08314Q21.7663 8.10906 21.8488 8.14322Q21.9313 8.17738 22.01 8.21946Q22.0887 8.26155 22.163 8.31114Q22.2372 8.36074 22.3062 8.41737Q22.3752 8.47401 22.4383 8.53713Q22.5014 8.60026 22.5581 8.66927Q22.6147 8.73827 22.6643 8.8125Q22.7139 8.88673 22.756 8.96546Q22.7981 9.04419 22.8322 9.12667Q22.8664 9.20915 22.8923 9.29457Q22.9182 9.38 22.9356 9.46756Q22.9531 9.55512 22.9618 9.64396Q22.9706 9.7328 22.9706 9.82207L22.9706 13.1485Q22.9706 13.2378 22.9618 13.3266Q22.9531 13.4154 22.9356 13.503Q22.9182 13.5906 22.8923 13.676Q22.8664 13.7614 22.8322 13.8439Q22.7981 13.9264 22.756 14.0051Q22.7139 14.0838 22.6643 14.1581Q22.6147 14.2323 22.5581 14.3013Q22.5014 14.3703 22.4383 14.4334Q22.3752 14.4966 22.3062 14.5532Q22.2372 14.6098 22.163 14.6594Q22.0887 14.709 22.01 14.7511Q21.9313 14.7932 21.8488 14.8273Q21.7663 14.8615 21.6809 14.8874Q21.5955 14.9133 21.5079 14.9308Q21.4203 14.9482 21.3315 14.9569Q21.2427 14.9657 21.1534 14.9657L1.81718 14.9657Q1.72791 14.9657 1.63907 14.9569Q1.55022 14.9482 1.46267 14.9308Q1.37511 14.9133 1.28968 14.8874Q1.20425 14.8615 1.12178 14.8273Q1.0393 14.7932 0.960568 14.7511Q0.881837 14.709 0.80761 14.6594Q0.733382 14.6098 0.664374 14.5532Q0.595365 14.4966 0.53224 14.4334Q0.469115 14.3703 0.412481 14.3013Q0.355847 14.2323 0.30625 14.1581Q0.256653 14.0838 0.214571 14.0051Q0.172488 13.9264 0.138325 13.8439Q0.104162 13.7614 0.0782472 13.676Q0.0523328 13.5906 0.0349166 13.503Q0.0175005 13.4154 0.00875023 13.3266Q0 13.2378 0 13.1485L0 9.82207Q0 9.7328 0.00875023 9.64396Q0.0175005 9.55512 0.0349166 9.46756Q0.0523328 9.38 0.0782472 9.29457Q0.104162 9.20915 0.138325 9.12667Q0.172488 9.04419 0.214571 8.96546Q0.256653 8.88673 0.30625 8.8125Q0.355847 8.73827 0.412481 8.66927Q0.469115 8.60026 0.53224 8.53713Q0.595365 8.47401 0.664374 8.41737Q0.733382 8.36074 0.80761 8.31114Q0.881837 8.26155 0.960568 8.21946Q1.0393 8.17738 1.12178 8.14322Q1.20425 8.10906 1.28968 8.08314Q1.37511 8.05723 1.46267 8.03981Q1.55022 8.02239 1.63907 8.01364Q1.72791 8.00489 1.81718 8.00489L1.81718 8.00489Z" id="Rectangle-2" fill="#FFFFFF" fill-rule="evenodd" stroke="none" />
    <path d="M14.9657 1.81718L14.9657 21.1534Q14.9657 21.2427 14.9569 21.3315Q14.9482 21.4203 14.9308 21.5079Q14.9133 21.5955 14.8874 21.6809Q14.8615 21.7663 14.8273 21.8488Q14.7932 21.9313 14.7511 22.01Q14.709 22.0887 14.6594 22.163Q14.6098 22.2372 14.5532 22.3062Q14.4966 22.3752 14.4334 22.4383Q14.3703 22.5014 14.3013 22.5581Q14.2323 22.6147 14.1581 22.6643Q14.0838 22.7139 14.0051 22.756Q13.9264 22.7981 13.8439 22.8322Q13.7614 22.8664 13.676 22.8923Q13.5906 22.9182 13.503 22.9356Q13.4154 22.9531 13.3266 22.9618Q13.2378 22.9706 13.1485 22.9706L9.82207 22.9706Q9.7328 22.9706 9.64396 22.9618Q9.55512 22.9531 9.46756 22.9356Q9.38 22.9182 9.29457 22.8923Q9.20915 22.8664 9.12667 22.8322Q9.04419 22.7981 8.96546 22.756Q8.88673 22.7139 8.8125 22.6643Q8.73827 22.6147 8.66927 22.5581Q8.60026 22.5014 8.53713 22.4383Q8.47401 22.3752 8.41737 22.3062Q8.36074 22.2372 8.31114 22.163Q8.26155 22.0887 8.21946 22.01Q8.17738 21.9313 8.14322 21.8488Q8.10906 21.7663 8.08314 21.6809Q8.05723 21.5955 8.03981 21.5079Q8.02239 21.4203 8.01364 21.3315Q8.00489 21.2427 8.00489 21.1534L8.00489 1.81718Q8.00489 1.72791 8.01364 1.63907Q8.02239 1.55023 8.03981 1.46267Q8.05722 1.37511 8.08314 1.28968Q8.10905 1.20425 8.14322 1.12178Q8.17738 1.0393 8.21946 0.960569Q8.26155 0.881838 8.31114 0.807611Q8.36074 0.733383 8.41737 0.664375Q8.47401 0.595366 8.53713 0.532241Q8.60026 0.469116 8.66927 0.412482Q8.73827 0.355848 8.8125 0.306251Q8.88673 0.256654 8.96546 0.214572Q9.04419 0.172489 9.12667 0.138326Q9.20915 0.104163 9.29457 0.0782482Q9.38 0.0523338 9.46756 0.0349177Q9.55512 0.0175015 9.64396 0.00875124Q9.7328 1.01608e-06 9.82207 1.01501e-06L13.1485 9.75344e-07Q13.2378 9.74279e-07 13.3266 0.0087512Q13.4154 0.0175014 13.503 0.0349176Q13.5906 0.0523338 13.676 0.0782482Q13.7614 0.104163 13.8439 0.138326Q13.9264 0.172489 14.0051 0.214571Q14.0838 0.256654 14.1581 0.306251Q14.2323 0.355848 14.3013 0.412482Q14.3703 0.469116 14.4334 0.532241Q14.4966 0.595366 14.5532 0.664375Q14.6098 0.733383 14.6594 0.807611Q14.709 0.881838 14.7511 0.960569Q14.7932 1.0393 14.8273 1.12178Q14.8615 1.20425 14.8874 1.28968Q14.9133 1.37511 14.9308 1.46267Q14.9482 1.55023 14.9569 1.63907Q14.9657 1.72791 14.9657 1.81718L14.9657 1.81718Z" id="Rectangle-2-Copy" fill="#FFFFFF" fill-rule="evenodd" stroke="none" />
  </g>
</svg>