<?xml version="1.0" encoding="UTF-8"?>
<svg width="36px" height="36px" viewBox="0 0 36 36" version="1.1" xmlns="http://www.w3.org/2000/svg" xmlns:xlink="http://www.w3.org/1999/xlink">
    <title>Group 2 Copy 53</title>
    <g id="StaFiHub" stroke="none" stroke-width="1" fill="none" fill-rule="evenodd">
        <g id="Group-2-Copy-53">
            <ellipse id="Oval-5-Copy-2" fill="#6758FF" cx="17.8651479" cy="18" rx="17.8651479" ry="18"></ellipse>
            <path d="M25,12.1828893 L24.2648291,14.8301742 C23.415294,14.4860809 22.6256739,14.3140369 21.895945,14.3140369 C19.8483477,14.3140369 18.5196076,15.3074525 17.909685,17.2943135 C17.909685,22.4002134 17.9423589,25.9687398 18.0077078,28 L15.1160355,28 C15.2902991,24.481369 15.3774296,21.7508635 15.3774296,19.8084016 C15.3774296,18.4531551 15.0670241,16.4964139 14.3431635,14.8301742 C13.6193029,13.1639344 11.4477212,12.1828893 10,11.6334529 L13.6193029,8 C13.7127169,8.55116114 13.7173257,10.2131148 15.1160355,11.6885246 C16.5147453,13.1639344 17.2386059,14.4140429 17.2386059,14.6393443 L17.5,13.9016393 C18.6762793,12.136774 20.4582696,11.6334529 22.0266421,11.6334529 C22.8543942,11.6334529 23.8455036,11.8165965 25,12.1828893 Z" id="r" fill="#23292F"></path>
            <path d="M6,13.3847656 L6,7.7421875 C6.03515643,5.91405336 6.94920979,5 8.7421875,5 L11.3789062,5 L11.3789062,6.21289062 L9.32226562,6.21289062 C8.37304213,6.21289062 7.88085955,6.68749525 7.84570312,7.63671875 L7.84570312,13.3847656 L6,13.3847656 Z" id="r" fill="#FFFFFF"></path>
        </g>
    </g>
</svg>