<?xml version="1.0" encoding="utf-8"?>
<svg width="18px" height="18px" viewBox="0 0 18 18" version="1.1" xmlns:xlink="http://www.w3.org/1999/xlink" xmlns="http://www.w3.org/2000/svg">
  <defs>
    <path d="M1.642 0C5.73184 0 8.713 0 11.6471 0C11.6471 0 12.1103 1.58824 12.7059 1.58824C13.3015 1.58824 13.8971 0 13.8971 0L16.358 0Q16.4387 0 16.5189 0.00790669Q16.5992 0.0158134 16.6783 0.0315506Q16.7575 0.0472878 16.8346 0.070704Q16.9118 0.0941203 16.9864 0.12499Q17.0609 0.15586 17.132 0.193886Q17.2032 0.231911 17.2702 0.276727Q17.3373 0.321543 17.3997 0.372717Q17.462 0.423892 17.5191 0.480931Q17.5761 0.537971 17.6273 0.600327Q17.6785 0.662683 17.7233 0.729754Q17.7681 0.796826 17.8061 0.867967Q17.8441 0.939109 17.875 1.01363Q17.9059 1.08816 17.9293 1.16535Q17.9527 1.24255 17.9684 1.32166Q17.9842 1.40078 17.9921 1.48106Q18 1.56134 18 1.642L18 16.358Q18 16.4387 17.9921 16.5189Q17.9842 16.5992 17.9684 16.6783Q17.9527 16.7575 17.9293 16.8346Q17.9059 16.9118 17.875 16.9864Q17.8441 17.0609 17.8061 17.132Q17.7681 17.2032 17.7233 17.2702Q17.6785 17.3373 17.6273 17.3997Q17.5761 17.462 17.5191 17.5191Q17.462 17.5761 17.3997 17.6273Q17.3373 17.6785 17.2702 17.7233Q17.2032 17.7681 17.132 17.8061Q17.0609 17.8441 16.9864 17.875Q16.9118 17.9059 16.8346 17.9293Q16.7575 17.9527 16.6783 17.9684Q16.5992 17.9842 16.5189 17.9921Q16.4387 18 16.358 18C15.2306 18 14.692 18 14.1618 18C14.1618 18 13.0638 16.4118 12.7059 16.4118C12.348 16.4118 11.5147 18 11.5147 18L1.642 18Q1.56134 18 1.48106 17.9921Q1.40078 17.9842 1.32166 17.9684Q1.24255 17.9527 1.16535 17.9293Q1.08816 17.9059 1.01363 17.875Q0.939109 17.8441 0.867968 17.8061Q0.796826 17.7681 0.729755 17.7233Q0.662683 17.6785 0.600327 17.6273Q0.537971 17.5761 0.480931 17.5191Q0.423892 17.462 0.372717 17.3997Q0.321543 17.3373 0.276727 17.2702Q0.231911 17.2032 0.193886 17.132Q0.15586 17.0609 0.12499 16.9864Q0.0941203 16.9118 0.070704 16.8346Q0.0472878 16.7575 0.0315506 16.6783Q0.0158134 16.5992 0.00790669 16.5189Q0 16.4387 0 16.358L0 4.63235L0 3.04412L0 1.642Q0 1.56134 0.00790669 1.48106Q0.0158134 1.40078 0.0315506 1.32166Q0.0472878 1.24255 0.070704 1.16535Q0.0941203 1.08816 0.12499 1.01363Q0.15586 0.939109 0.193886 0.867968Q0.231911 0.796826 0.276727 0.729755Q0.321543 0.662683 0.372717 0.600327Q0.423892 0.537971 0.480931 0.480931Q0.537971 0.423892 0.600327 0.372717Q0.662683 0.321543 0.729754 0.276727Q0.796826 0.231911 0.867967 0.193886Q0.939109 0.15586 1.01363 0.12499Q1.08816 0.0941203 1.16535 0.070704Q1.24255 0.0472878 1.32166 0.0315506Q1.40078 0.0158134 1.48106 0.00790669Q1.56134 0 1.642 0L1.642 0Z" id="path_1" />
    <clipPath id="clip_1">
      <use xlink:href="#path_1" />
    </clipPath>
  </defs>
  <g id="Group-8-Copy-5" opacity="0.8">
    <g id="Rectangle-24">
      <g clip-path="url(#clip_1)">
        <use xlink:href="#path_1" fill="none" stroke="#FFFFFF" stroke-width="2.0689654" />
      </g>
    </g>
  </g>
</svg>