<?xml version="1.0" encoding="utf-8"?>
<svg width="24px" height="24px" viewBox="0 0 24 24" version="1.1" xmlns:xlink="http://www.w3.org/1999/xlink" xmlns="http://www.w3.org/2000/svg">
  <g id="activity-outline">
    <path d="M24 0L24 24L-1.90735e-06 24L0 -1.04907e-06L24 0Z" id="Rectangle-path" fill="#000000" fill-opacity="0" fill-rule="evenodd" stroke="none" />
    <path d="M14.33 20L14.12 20C13.2514 19.9138 12.539 19.2743 12.36 18.42L9.68 6L6.92 12.4C6.76045 12.7656 6.39889 13.0014 6 13L3 13C2.44772 13 2 12.5523 2 12C2 11.4477 2.44772 11 3 11L5.34 11L7.85 5.21C8.19668 4.4128 9.01863 3.93084 9.88361 4.01757C10.7486 4.10429 11.4585 4.73984 11.64 5.59L14.32 18L17.08 11.62C17.2334 11.2466 17.5963 11.002 18 11L21 11C21.5523 11 22 11.4477 22 12C22 12.5523 21.5523 13 21 13L18.66 13L16.15 18.79C15.8368 19.5185 15.1229 19.9931 14.33 20Z" id="Shape" fill="#FFFFFF" fill-rule="evenodd" stroke="none" />
  </g>
</svg>