<?xml version="1.0" encoding="utf-8"?>
<svg width="27px" height="27px" viewBox="0 0 27 27" version="1.1" xmlns:xlink="http://www.w3.org/1999/xlink" xmlns="http://www.w3.org/2000/svg">
  <g id="Group-6-Copy-3">
    <path d="M2.399 0L24.601 0Q24.7189 0 24.8361 0.0115518Q24.9534 0.0231037 25.069 0.0460961Q25.1846 0.0690885 25.2974 0.1033Q25.4102 0.137512 25.5191 0.182613Q25.6279 0.227714 25.7319 0.283271Q25.8358 0.338827 25.9338 0.404304Q26.0318 0.469781 26.1229 0.544548Q26.214 0.619315 26.2973 0.702651Q26.3807 0.785987 26.4555 0.877091Q26.5302 0.968194 26.5957 1.06619Q26.6612 1.16418 26.7167 1.26812Q26.7723 1.37206 26.8174 1.48094Q26.8625 1.58983 26.8967 1.70261Q26.9309 1.81539 26.9539 1.93098Q26.9769 2.04657 26.9884 2.16386Q27 2.28114 27 2.399L27 24.601Q27 24.7189 26.9884 24.8361Q26.9769 24.9534 26.9539 25.069Q26.9309 25.1846 26.8967 25.2974Q26.8625 25.4102 26.8174 25.5191Q26.7723 25.6279 26.7167 25.7319Q26.6612 25.8358 26.5957 25.9338Q26.5302 26.0318 26.4555 26.1229Q26.3807 26.214 26.2973 26.2973Q26.214 26.3807 26.1229 26.4555Q26.0318 26.5302 25.9338 26.5957Q25.8358 26.6612 25.7319 26.7167Q25.6279 26.7723 25.5191 26.8174Q25.4102 26.8625 25.2974 26.8967Q25.1846 26.9309 25.069 26.9539Q24.9534 26.9769 24.8361 26.9884Q24.7189 27 24.601 27L2.399 27Q2.28114 27 2.16386 26.9884Q2.04657 26.9769 1.93098 26.9539Q1.81539 26.9309 1.70261 26.8967Q1.58983 26.8625 1.48094 26.8174Q1.37206 26.7723 1.26812 26.7167Q1.16418 26.6612 1.06619 26.5957Q0.968194 26.5302 0.877091 26.4555Q0.785987 26.3807 0.702651 26.2973Q0.619315 26.214 0.544548 26.1229Q0.469781 26.0318 0.404304 25.9338Q0.338828 25.8358 0.283271 25.7319Q0.227714 25.6279 0.182613 25.5191Q0.137512 25.4102 0.1033 25.2974Q0.0690885 25.1846 0.0460961 25.069Q0.0231037 24.9534 0.0115518 24.8361Q0 24.7189 0 24.601L0 2.399Q0 2.28114 0.0115518 2.16386Q0.0231037 2.04657 0.0460961 1.93098Q0.0690885 1.81539 0.1033 1.70261Q0.137512 1.58983 0.182613 1.48094Q0.227714 1.37206 0.283271 1.26812Q0.338827 1.16418 0.404304 1.06619Q0.469781 0.968194 0.544548 0.877091Q0.619315 0.785987 0.702651 0.702651Q0.785987 0.619315 0.877091 0.544548Q0.968194 0.469781 1.06619 0.404304Q1.16418 0.338828 1.26812 0.283271Q1.37206 0.227714 1.48094 0.182613Q1.58983 0.137512 1.70261 0.1033Q1.81539 0.0690885 1.93098 0.0460961Q2.04657 0.0231037 2.16386 0.0115518Q2.28114 0 2.399 0Z" id="Rectangle-3-Copy-4" fill="#353C43" fill-rule="evenodd" stroke="none" />
    <path d="M17.6691 10.9191L13.6985 16.0809L9.72794 10.9191L17.6691 10.9191Z" id="Rectangle-19" fill="#FFFFFF" fill-rule="evenodd" stroke="none" />
  </g>
</svg>