<?xml version="1.0" encoding="UTF-8"?>
<svg width="36px" height="36px" viewBox="0 0 36 36" version="1.1" xmlns="http://www.w3.org/2000/svg" xmlns:xlink="http://www.w3.org/1999/xlink">
    <title>编组 3</title>
    <g id="StaFiHub" stroke="none" stroke-width="1" fill="none" fill-rule="evenodd">
        <g id="StaFi-rDOT-Copy-11" transform="translate(-29.000000, -176.000000)">
            <g id="编组-3" transform="translate(29.000000, 176.000000)">
                <ellipse id="Oval-5-Copy-2" fill="#6758FF" cx="17.8651479" cy="18" rx="17.8651479" ry="18"></ellipse>
                <path d="M6,12.8847656 L6,7.2421875 C6.03515643,5.41405336 6.94920979,4.5 8.7421875,4.5 L11.3789062,4.5 L11.3789062,5.71289062 L9.32226562,5.71289062 C8.37304213,5.71289062 7.88085955,6.18749525 7.84570312,7.13671875 L7.84570312,12.8847656 L6,12.8847656 Z" id="r" fill="#FFFFFF"></path>
                <path d="M9.22881356,11 L26.7711864,11 C26.8975567,11 27,11.1024433 27,11.2288136 L27,17.9319905 C27,18.0583607 26.8975567,18.160804 26.7711864,18.160804 L21.92133,18.160804 C21.8863013,18.160804 21.8517403,18.1688464 21.8203104,18.1843113 L21.7914894,18.1984925 C21.7421524,18.2227684 21.703454,18.2643247 21.6827491,18.3152635 L21.6551394,18.3831892 C21.644017,18.4105529 21.6382979,18.4398113 21.6382979,18.469349 L21.6382979,25.7711864 C21.6382979,25.8975567 21.5358546,26 21.4094843,26 L14.6288136,26 C14.5024433,26 14.4,25.8975567 14.4,25.7711864 L14.4,18.4476392 C14.4,18.4323338 14.3984643,18.4170669 14.3954161,18.4020681 L14.3787038,18.3198366 C14.367981,18.2670758 14.3334145,18.2222622 14.2851064,18.1984925 L14.2562854,18.1843113 C14.2248554,18.1688464 14.1902944,18.160804 14.1552657,18.160804 L9.22881356,18.160804 C9.10244332,18.160804 9,18.0583607 9,17.9319905 L9,11.2288136 C9,11.1024433 9.10244332,11 9.22881356,11 Z" id="Rectangle-15" fill="#23292F"></path>
            </g>
        </g>
    </g>
</svg>