<?xml version="1.0" encoding="utf-8"?>
<svg width="18px" height="18px" viewBox="0 0 18 18" version="1.1" xmlns:xlink="http://www.w3.org/1999/xlink" xmlns="http://www.w3.org/2000/svg">
  <g id="shopping-bag-outline">
    <path d="M0 0L18 0L18 18L0 18L0 0Z" id="Rectangle-path" fill="#000000" fill-opacity="0" fill-rule="evenodd" stroke="none" />
    <path d="M15.09 5.0325L12.9675 2.91C12.5459 2.48792 11.974 2.25053 11.3775 2.25L6.6225 2.25C6.02596 2.25053 5.45405 2.48792 5.0325 2.91L2.91 5.0325C2.48792 5.45405 2.25053 6.02596 2.25 6.6225L2.25 13.5C2.25 14.7426 3.25736 15.75 4.5 15.75L13.5 15.75C14.7426 15.75 15.75 14.7426 15.75 13.5L15.75 6.6225C15.7495 6.02596 15.5121 5.45405 15.09 5.0325ZM6.09 3.9675C6.23373 3.83045 6.42392 3.75276 6.6225 3.75L11.3775 3.75C11.5761 3.75276 11.7663 3.83045 11.91 3.9675L13.1925 5.25L4.8075 5.25L6.09 3.9675ZM13.5 14.25L4.5 14.25C4.08579 14.25 3.75 13.9142 3.75 13.5L3.75 6.75L14.25 6.75L14.25 13.5C14.25 13.9142 13.9142 14.25 13.5 14.25Z" id="Shape" fill="#717171" stroke="none" />
    <path d="M11.25 8.25C10.8358 8.25 10.5 8.58579 10.5 9C10.5 9.82843 9.82843 10.5 9 10.5C8.17157 10.5 7.5 9.82843 7.5 9C7.5 8.58579 7.16421 8.25 6.75 8.25C6.33579 8.25 6 8.58579 6 9C6 10.6569 7.34315 12 9 12C10.6569 12 12 10.6569 12 9C12 8.58579 11.6642 8.25 11.25 8.25Z" id="Shape" fill="#717171" fill-rule="evenodd" stroke="none" />
  </g>
</svg>