<?xml version="1.0" encoding="utf-8"?>
<svg width="14px" height="15px" viewBox="0 0 14 15" version="1.1" xmlns:xlink="http://www.w3.org/1999/xlink" xmlns="http://www.w3.org/2000/svg">
  <g id="Group" transform="matrix(-4.371139E-08 -1 1 -4.371139E-08 0 15)">
    <path d="M0.559423 6.44321L6.05356 0.949079Q6.10883 0.893804 6.17383 0.850375Q6.23882 0.806946 6.31104 0.777031Q6.38326 0.747117 6.45993 0.731866Q6.5366 0.716616 6.61477 0.716616Q6.69294 0.716616 6.76961 0.731866Q6.84628 0.747117 6.9185 0.777031Q6.99072 0.806946 7.05572 0.850375Q7.12071 0.893804 7.17599 0.949079L7.1774 0.950493Q7.23267 1.00577 7.2761 1.07076Q7.31953 1.13576 7.34945 1.20798Q7.37936 1.2802 7.39461 1.35687Q7.40986 1.43354 7.40986 1.51171Q7.40986 1.58988 7.39461 1.66655Q7.37936 1.74321 7.34945 1.81543Q7.31953 1.88765 7.2761 1.95265Q7.23267 2.01765 7.1774 2.07292L3.22432 6.026L13.5701 6.026Q13.6255 6.026 13.6806 6.03143Q13.7357 6.03686 13.79 6.04766Q13.8443 6.05847 13.8973 6.07454Q13.9503 6.09062 14.0015 6.11181Q14.0527 6.13301 14.1015 6.15912Q14.1504 6.18522 14.1964 6.21599Q14.2425 6.24676 14.2853 6.2819Q14.3281 6.31703 14.3672 6.35619Q14.4064 6.39535 14.4415 6.43817Q14.4767 6.48098 14.5074 6.52703Q14.5382 6.57308 14.5643 6.62192Q14.5904 6.67076 14.6116 6.72193Q14.6328 6.7731 14.6489 6.8261Q14.665 6.8791 14.6758 6.93342Q14.6866 6.98773 14.692 7.04285Q14.6974 7.09797 14.6974 7.15335L14.6974 7.15535Q14.6974 7.21073 14.692 7.26585Q14.6866 7.32097 14.6758 7.37529Q14.665 7.42961 14.6489 7.4826Q14.6328 7.5356 14.6116 7.58677Q14.5904 7.63794 14.5643 7.68678Q14.5382 7.73562 14.5074 7.78167Q14.4767 7.82772 14.4415 7.87053Q14.4064 7.91335 14.3672 7.95251Q14.3281 7.99167 14.2853 8.0268Q14.2425 8.06194 14.1964 8.09271Q14.1504 8.12348 14.1015 8.14959Q14.0527 8.17569 14.0015 8.19689Q13.9503 8.21808 13.8973 8.23416Q13.8443 8.25024 13.79 8.26104Q13.7357 8.27185 13.6806 8.27727Q13.6255 8.2827 13.5701 8.2827L3.08518 8.2827L7.27168 12.4692Q7.32696 12.5245 7.37039 12.5895Q7.41382 12.6545 7.44373 12.7267Q7.47365 12.7989 7.4889 12.8756Q7.50415 12.9523 7.50415 13.0304Q7.50415 13.1086 7.4889 13.1853Q7.47365 13.2619 7.44373 13.3342Q7.41382 13.4064 7.37039 13.4714Q7.32696 13.5364 7.27168 13.5916L7.27027 13.5931Q7.15864 13.7047 7.01278 13.7651Q6.86693 13.8255 6.70906 13.8255Q6.55119 13.8255 6.40533 13.7651Q6.25948 13.7047 6.14784 13.5931L0.653708 8.09892Q0.58614 8.03135 0.53654 7.94968Q0.48694 7.868 0.458143 7.77689Q0.429347 7.68578 0.422999 7.59043Q0.416651 7.49509 0.433116 7.40096Q0.32696 7.2169 0.326961 7.00443Q0.326961 6.84655 0.387376 6.7007Q0.447791 6.55484 0.559423 6.44321Z" id="Combined-Shape" fill="#FFFFFF" fill-rule="evenodd" stroke="none" />
  </g>
</svg>