<?xml version="1.0" encoding="utf-8"?>
<svg width="10px" height="17px" viewBox="0 0 10 17" version="1.1" xmlns:xlink="http://www.w3.org/1999/xlink" xmlns="http://www.w3.org/2000/svg">
  <g id="Group-5-Copy" transform="matrix(-4.371139E-08 -1 1 -4.371139E-08 0.5 16.5)">
    <path d="M8.58344 8.00757L14.8247 1.76635Q14.8853 1.7057 14.933 1.63438Q14.9806 1.56306 15.0134 1.48382Q15.0463 1.40457 15.063 1.32045Q15.0797 1.23632 15.0797 1.15055Q15.0797 1.06477 15.063 0.980647Q15.0463 0.896522 15.0134 0.817277Q14.9806 0.738033 14.933 0.666714Q14.8853 0.595396 14.8247 0.534745L14.7719 0.481956Q14.7112 0.421304 14.6399 0.373651Q14.5686 0.325998 14.4893 0.293174Q14.4101 0.26035 14.326 0.243616Q14.2418 0.226882 14.1561 0.226882Q14.0703 0.226882 13.9862 0.243616Q13.902 0.26035 13.8228 0.293174Q13.7436 0.325998 13.6722 0.373651Q13.6009 0.421304 13.5403 0.481956L7.29905 6.72318Q7.2384 6.78383 7.19074 6.85515Q7.14309 6.92647 7.11027 7.00571Q7.07744 7.08496 7.06071 7.16908Q7.04397 7.25321 7.04397 7.33898Q7.04397 7.42475 7.06071 7.50888Q7.07744 7.593 7.11026 7.67225Q7.14309 7.75149 7.19074 7.82281Q7.2384 7.89413 7.29905 7.95478L7.35184 8.00757Q7.41249 8.06822 7.48381 8.11588Q7.55512 8.16353 7.63437 8.19635Q7.71361 8.22918 7.79774 8.24591Q7.88186 8.26264 7.96764 8.26264Q8.05341 8.26264 8.13754 8.24591Q8.22166 8.22918 8.30091 8.19635Q8.38015 8.16353 8.45147 8.11588Q8.52279 8.06822 8.58344 8.00757Z" id="Rectangle-3" fill="#DDDDDD" fill-rule="evenodd" stroke="none" />
    <path d="M0.817299 1.87949L7.05852 8.12071Q7.11917 8.18136 7.19049 8.22902Q7.26181 8.27667 7.34105 8.30949Q7.4203 8.34232 7.50442 8.35905Q7.58855 8.37578 7.67432 8.37578Q7.7601 8.37578 7.84422 8.35905Q7.92835 8.34232 8.00759 8.30949Q8.08684 8.27667 8.15815 8.22902Q8.22947 8.18136 8.29012 8.12071L8.34291 8.06792Q8.40356 8.00727 8.45122 7.93595Q8.49887 7.86464 8.53169 7.78539Q8.56452 7.70615 8.58125 7.62202Q8.59799 7.5379 8.59799 7.45212Q8.59799 7.36635 8.58125 7.28222Q8.56452 7.1981 8.53169 7.11885Q8.49887 7.03961 8.45122 6.96829Q8.40356 6.89697 8.34291 6.83632L2.10169 0.595098Q2.04104 0.534447 1.96972 0.486794Q1.8984 0.43914 1.81916 0.406316Q1.73991 0.373492 1.65579 0.356759Q1.57166 0.340025 1.48589 0.340025Q1.40012 0.340025 1.31599 0.356759Q1.23186 0.373493 1.15262 0.406317Q1.07338 0.439141 1.00206 0.486794Q0.93074 0.534447 0.870089 0.595098L0.817299 0.647888Q0.756648 0.708539 0.708994 0.779857Q0.661341 0.851175 0.628517 0.93042Q0.595693 1.00966 0.578959 1.09379Q0.562226 1.17792 0.562226 1.26369Q0.562226 1.34946 0.578959 1.43359Q0.595693 1.51771 0.628517 1.59696Q0.661341 1.6762 0.708994 1.74752Q0.756648 1.81884 0.817299 1.87949L0.817299 1.87949Z" id="Rectangle-3-Copy-2" fill="#DDDDDD" fill-rule="evenodd" stroke="none" />
  </g>
</svg>