<?xml version="1.0" encoding="utf-8"?>
<svg width="19px" height="16px" viewBox="0 0 19 16" version="1.1" xmlns:xlink="http://www.w3.org/1999/xlink" xmlns="http://www.w3.org/2000/svg">
  <g id="Group-11" transform="translate(0.5250244 0.52490234)">
    <g id="Group-8" transform="translate(3.5416667 0)">
      <path d="M0.057792 5.84706C0.057792 5.84706 2.48781 3.53152 4.91782 3.53152C7.34783 3.53152 9.77785 5.84706 9.77785 5.84706" id="Line-2" fill="none" fill-rule="evenodd" stroke="#887CFF" stroke-width="1.05" stroke-linecap="square" />
      <path d="M10.2137 6.372L9.97275 6.49478Q9.92429 6.51948 9.87194 6.53424Q9.81959 6.549 9.76537 6.55327Q9.71114 6.55754 9.65713 6.55115Q9.60312 6.54475 9.55139 6.52795Q9.49966 6.51114 9.4522 6.48456Q9.40475 6.45799 9.36339 6.42266Q9.32203 6.38734 9.28836 6.34462Q9.25469 6.30191 9.22999 6.25345L7.31859 2.5021Q7.29389 2.45364 7.27913 2.40129Q7.26437 2.34894 7.2601 2.29472Q7.25583 2.24049 7.26222 2.18648Q7.26862 2.13247 7.28543 2.08074Q7.30223 2.02901 7.32881 1.98156Q7.35539 1.9341 7.39071 1.89274Q7.42603 1.85138 7.46875 1.81771Q7.51146 1.78404 7.55992 1.75934L7.8009 1.63656Q7.84937 1.61187 7.90171 1.5971Q7.95406 1.58234 8.00828 1.57807Q8.06251 1.5738 8.11652 1.5802Q8.17053 1.58659 8.22226 1.6034Q8.27399 1.6202 8.32145 1.64678Q8.3689 1.67336 8.41026 1.70868Q8.45162 1.744 8.48529 1.78672Q8.51897 1.82943 8.54366 1.87789L10.4551 5.62924Q10.4798 5.67771 10.4945 5.73005Q10.5093 5.7824 10.5136 5.83662Q10.5178 5.89085 10.5114 5.94486Q10.505 5.99887 10.4882 6.0506Q10.4714 6.10233 10.4448 6.14979Q10.4183 6.19724 10.3829 6.2386Q10.3476 6.27996 10.3049 6.31363Q10.2622 6.34731 10.2137 6.372Z" id="Combined-Shape-Copy-2" fill="#887CFF" fill-rule="evenodd" stroke="none" />
    </g>
    <g id="Group-8" transform="matrix(-1 0 0 -1 13.458333 14)">
      <path d="M0.057792 5.84706C0.057792 5.84706 2.48781 3.53152 4.91782 3.53152C7.34783 3.53152 9.77785 5.84706 9.77785 5.84706" id="Line-2" fill="none" fill-rule="evenodd" stroke="#887CFF" stroke-width="1.05" stroke-linecap="square" />
      <path d="M10.2137 6.372L9.97275 6.49478Q9.92429 6.51948 9.87194 6.53424Q9.81959 6.549 9.76537 6.55327Q9.71114 6.55754 9.65713 6.55115Q9.60312 6.54475 9.55139 6.52795Q9.49966 6.51114 9.4522 6.48456Q9.40475 6.45799 9.36339 6.42266Q9.32203 6.38734 9.28836 6.34462Q9.25469 6.30191 9.22999 6.25345L7.31859 2.5021Q7.29389 2.45364 7.27913 2.40129Q7.26437 2.34894 7.2601 2.29472Q7.25583 2.24049 7.26222 2.18648Q7.26862 2.13247 7.28543 2.08074Q7.30223 2.02901 7.32881 1.98156Q7.35539 1.9341 7.39071 1.89274Q7.42603 1.85138 7.46875 1.81771Q7.51146 1.78404 7.55992 1.75934L7.8009 1.63656Q7.84937 1.61187 7.90171 1.5971Q7.95406 1.58234 8.00828 1.57807Q8.06251 1.5738 8.11652 1.5802Q8.17053 1.58659 8.22226 1.6034Q8.27399 1.6202 8.32145 1.64678Q8.3689 1.67336 8.41026 1.70868Q8.45162 1.744 8.48529 1.78672Q8.51897 1.82943 8.54366 1.87789L10.4551 5.62924Q10.4798 5.67771 10.4945 5.73005Q10.5093 5.7824 10.5136 5.83662Q10.5178 5.89085 10.5114 5.94486Q10.505 5.99887 10.4882 6.0506Q10.4714 6.10233 10.4448 6.14979Q10.4183 6.19724 10.3829 6.2386Q10.3476 6.27996 10.3049 6.31363Q10.2622 6.34731 10.2137 6.372Z" id="Combined-Shape-Copy-2" fill="#887CFF" fill-rule="evenodd" stroke="none" />
    </g>
  </g>
</svg>