<?xml version="1.0" encoding="utf-8"?>
<svg width="9px" height="9px" viewBox="0 0 9 9" version="1.1" xmlns:xlink="http://www.w3.org/1999/xlink" xmlns="http://www.w3.org/2000/svg">
  <g id="Group-Copy-22" transform="translate(0.25 0.25)">
    <path d="M4 8C6.20914 8 8 6.20914 8 4C8 1.79086 6.20914 0 4 0C1.79086 0 0 1.79086 0 4C0 6.20914 1.79086 8 4 8Z" id="Oval-5-Copy-10" fill="#8F8F8F" fill-rule="evenodd" stroke="none" />
    <g id="?" fill="#FFFFFF" transform="translate(2.5 1)">
      <path d="M1.44434 4.54248L2.02734 4.54248L2.02734 5.15186L1.44434 5.15186L1.44434 4.54248ZM0.457031 2.1958Q0.457031 1.56299 0.814453 1.17773Q1.17188 0.79248 1.7959 0.79248Q2.37305 0.79248 2.72021 1.12207Q3.06738 1.45166 3.06738 1.96436Q3.06738 2.2749 2.93994 2.46826Q2.8125 2.66162 2.42578 3.03662Q2.14453 3.30908 2.06104 3.49805Q1.97754 3.68701 1.97754 4.05615L1.45605 4.05615Q1.45605 3.63721 1.55566 3.38086Q1.65527 3.12451 1.99219 2.79346L2.22656 2.56201Q2.33203 2.4624 2.39648 2.354Q2.51367 2.16357 2.51367 1.9585Q2.51367 1.67139 2.34229 1.46045Q2.1709 1.24951 1.77539 1.24951Q1.28613 1.24951 1.09863 1.61279Q0.993164 1.81494 0.978516 2.1958L0.457031 2.1958Z" />
    </g>
  </g>
</svg>