<?xml version="1.0" encoding="utf-8"?>
<svg width="20px" height="20px" viewBox="0 0 20 20" version="1.1" xmlns:xlink="http://www.w3.org/1999/xlink" xmlns="http://www.w3.org/2000/svg">
  <g id="log-out-outline">
    <path d="M20 0L20 20L0 20L0 -8.74228e-07L20 0Z" id="Rectangle-path" fill="#FFFFFF" fill-opacity="0" fill-rule="evenodd" stroke="none" />
    <path d="M5.5 4.66667C5.96024 4.66667 6.33333 4.29357 6.33333 3.83333C6.33333 3.3731 5.96024 3 5.5 3L3.83333 3C3.3731 3 3 3.3731 3 3.83333L3 15.5C3 15.9602 3.3731 16.3333 3.83333 16.3333L5.5 16.3333C5.96024 16.3333 6.33333 15.9602 6.33333 15.5C6.33333 15.0398 5.96024 14.6667 5.5 14.6667L4.66667 14.6667L4.66667 4.66667L5.5 4.66667Z" id="Shape" fill="#FFFFFF" fill-rule="evenodd" stroke="none" />
    <path d="M16.85 8.68458L14.5 5.35124C14.2347 4.97723 13.717 4.88786 13.3417 5.15124C13.1596 5.27881 13.0361 5.47381 12.9985 5.6929C12.961 5.91199 13.0125 6.137 13.1417 6.31791L14.575 8.33458L7.83333 8.33458C7.3731 8.33458 7 8.70767 7 9.16791C7 9.62815 7.3731 10.0012 7.83333 10.0012L14.5 10.0012L13 12.0012C12.8674 12.1781 12.8105 12.4003 12.8417 12.6191C12.873 12.8379 12.9899 13.0353 13.1667 13.1679C13.3109 13.2761 13.4864 13.3346 13.6667 13.3346C13.929 13.3346 14.176 13.2111 14.3333 13.0012L16.8333 9.66791C17.0523 9.3787 17.0591 8.98104 16.85 8.68458L16.85 8.68458Z" id="Shape" fill="#FFFFFF" fill-rule="evenodd" stroke="none" />
  </g>
</svg>