<svg height="35" viewBox="0 0 40 35" width="40" xmlns="http://www.w3.org/2000/svg"><g fill="#6758ff" fill-rule="evenodd"><path d="m8.60606 10.3691c1.49494-1.51148 2.74714-2.03136 2.74714-2.03136l23.2975-2.85516s3.356-.40365 4.3527.85591c.9966 1.25956.9966 4.03061.9966 4.03061v13.932s-.4645 2.078-.9966 2.9461c-.5322.8682-1.6448 1.3627-1.6448 1.3627l-27.64802 6.3531s-.91416.1656-1.60284-.4103-.99663-1.7634-.99663-1.7634v-18.3896s0-2.5191 1.49495-4.0306z" fill-opacity=".518909"/><path d="m1.49495 4.98448c1.49495-1.51148 2.74714-2.03136 2.74714-2.03136l23.29751-2.8551561s3.356-.4036519 4.3527.8559111c.9966 1.259565.9966 4.030605.9966 4.030605v13.93202s-.4645 2.078-.9966 2.9461c-.5322.8681-1.6448 1.3627-1.6448 1.3627l-27.64804 6.3531s-.91415.1656-1.602827-.4103c-.688681-.5759-.996633-1.7634-.996633-1.7634v-18.38962s0-2.51913 1.49495-4.0306z"/></g></svg>